<svg xmlns="http://www.w3.org/2000/svg" viewBox="0 0 480 330"><defs><style>.cls-1{fill:#bc5fff;}.cls-2{fill:#6e5abd;}.cls-3{fill:#6e5cc0;}.cls-4{fill:#4f3ead;}.cls-5{fill:#5344b7;}.cls-6{fill:#e0f2fe;}.cls-7{fill:#3b8ef3;}.cls-8{fill:#5663bc;}.cls-9{fill:#0faad6;}.cls-10{fill:#4c78d6;}.cls-11{fill:#1999c8;}.cls-12{fill:#1799cb;}.cls-13{fill:#12acd7;}.cls-14{fill:#89b0c6;}.cls-15{fill:#7494c3;}.cls-16{fill:#1b9ac6;}.cls-17{fill:#ca8ad2;}.cls-18{fill:#be50c5;}.cls-19{fill:#1068b4;}.cls-20{fill:#7b89ef;}.cls-21{fill:#185aa0;}.cls-22{fill:#1f7ea7;}.cls-23{fill:#bf62c4;}.cls-24{fill:#ce91ce;}.cls-25{fill:#c87aca;}.cls-26{fill:#e33298;}.cls-27{fill:#7f8ceb;}.cls-28{fill:#c82583;}.cls-29{fill:#cb7bcd;}.cls-30{fill:#1579bd;}.cls-31{fill:#27749e;}.cls-32{fill:#543dc0;}.cls-33{fill:#7b5ba2;}.cls-34{fill:#757fd7;}.cls-35{fill:#054680;}.cls-36{fill:#75569d;}.cls-37{fill:#bfbcc5;}.cls-38{fill:#bab4c1;}.cls-39{fill:#516ac6;}.cls-40{fill:#bab7c2;}.cls-41{fill:#3c1d82;}.cls-42{fill:#452b94;}.cls-43{fill:#4d38a6;}.cls-44{fill:#e1effc;}.cls-45{fill:#462c96;}.cls-46{fill:#6749ad;}.cls-47{fill:#633ca3;}.cls-48{fill:#2569df;}.cls-49{fill:#2b59cd;}.cls-50{fill:#2d4bbb;}.cls-51{fill:#bfa6ee;}.cls-52{fill:#9786e9;}.cls-53{fill:#faa79f;}.cls-54{fill:#906dce;}.cls-55{fill:#a394ea;}.cls-56{fill:#fcaea2;}.cls-57{fill:#7a64d0;}.cls-58{fill:#8a76da;}.cls-59{fill:#2a389d;}.cls-60{fill:#6b56be;}.cls-61{fill:#846fc5;}.cls-62{fill:#1f338f;}.cls-63{fill:#5b49b5;}.cls-64{fill:#7f6dd3;}.cls-65{fill:#ba5d75;}.cls-66{fill:#dc50d3;}.cls-67{fill:#94326b;}.cls-68{fill:#c2aff2;}.cls-69{fill:#6454c1;}.cls-70{fill:#0c448f;}.cls-71{fill:#f069be;}.cls-72{fill:#faaba0;}.cls-73{fill:#a798da;}.cls-74{fill:#123c8d;}.cls-75{fill:#f2adab;}.cls-76{fill:#906ecc;}.cls-77{fill:#9481d0;}.cls-78{fill:#e37e7d;}.cls-79{fill:#6e4eb5;}.cls-80{fill:#177cca;}.cls-81{fill:#c8798d;}.cls-82{fill:#186cad;}.cls-83{fill:#8776d1;}.cls-84{fill:#195da5;}.cls-85{fill:#e07f85;}.cls-86{fill:#82b1d1;}.cls-87{fill:#3d679b;}.cls-88{fill:#2b2379;}.cls-89{fill:#d7bdec;}.cls-90{fill:#ce707e;}.cls-91{fill:#bd75cf;}.cls-92{fill:#c5b6f3;}.cls-93{fill:#6fb5e5;}.cls-94{fill:#acb5c6;}.cls-95{fill:#5241c1;}.cls-96{fill:#bc3686;}.cls-97{fill:#b445a0;}.cls-98{fill:#503a71;}.cls-99{fill:#5d3e66;}.cls-100{fill:#a9b5c4;}.cls-101{fill:#a8b6c4;}.cls-102{fill:#b09aee;}.cls-103{fill:#a490ef;}.cls-104{fill:#a293e9;}.cls-105{fill:#9383e6;}.cls-106{fill:#10b1dd;}.cls-107{fill:#7d6ed7;}.cls-108{fill:#7b66d1;}.cls-109{fill:#907cd6;}.cls-110{fill:#513daa;}.cls-111{fill:#7eaae6;}.cls-112{fill:#7089cb;}.cls-113{fill:#5b2f96;}.cls-114{fill:#074678;}.cls-115{fill:#12639e;}.cls-116{fill:#4285e7;}.cls-117{fill:#4e4ab2;}.cls-118{fill:#4355c2;}.cls-119{fill:#b628d7;}.cls-120{fill:#f2fbfe;}.cls-121{fill:#d1ddec;}.cls-122{fill:#c2f4f8;}.cls-123{fill:#c9f8fc;}.cls-124{fill:#4973d2;}.cls-125{fill:#5c83c0;}.cls-126{fill:#5a79b3;}.cls-127{fill:#c4dff6;}.cls-128{fill:#cfe3f3;}.cls-129{fill:#5a7bac;}.cls-130{fill:#9bb3da;}.cls-131{fill:#ecfcfe;}.cls-132{fill:#b2cbfc;}.cls-133{fill:#bacced;}.cls-134{fill:#4565a2;}.cls-135{fill:#d6effe;}.cls-136{fill:#5573ab;}.cls-137{fill:#e0f8fe;}.cls-138{fill:#1168b2;}.cls-139{fill:#b5effb;}.cls-140{fill:#97f2fa;}.cls-141{fill:#a2f0f9;}.cls-142{fill:#87e2f9;}.cls-143{fill:#73bbeb;}.cls-144{fill:#79dbf9;}.cls-145{fill:#6babe7;}.cls-146{fill:#5f99db;}.cls-147{fill:#f489f7;}.cls-148{fill:#ec79f4;}.cls-149{fill:#ed6def;}.cls-150{fill:#e5dafa;}.cls-151{fill:#e85eef;}.cls-152{fill:#e450eb;}.cls-153{fill:#e455ec;}.cls-154{fill:#f88ef7;}.cls-155{fill:#f378f4;}.cls-156{fill:#f274f3;}.cls-157{fill:#4682e3;}.cls-158{fill:#7a4a9f;}.cls-159{fill:#6b56aa;}.cls-160{fill:#a28ede;}.cls-161{fill:#8a74d1;}.cls-162{fill:#9f89db;}.cls-163{fill:#bea4f0;}.cls-164{fill:#bca9f3;}.cls-165{fill:#ea8689;}.cls-166{fill:#d37083;}.cls-167{fill:#2e3374;}.cls-168{fill:#573774;}.cls-169{fill:#5b366b;}.cls-170{fill:#b96e83;}.cls-171{fill:#a688d6;}.cls-172{fill:#7353b9;}.cls-173{fill:#67bcf1;}.cls-174{fill:#aa99f5;}.cls-175{fill:#a794f0;}.cls-176{fill:#f4b3a9;}.cls-177{fill:#fef1fd;}.cls-178{fill:#c96980;}.cls-179{fill:#7d6bd6;}.cls-180{fill:#bcacf2;}.cls-181{fill:#04457b;}.cls-182{fill:#8474d7;}.cls-183{fill:#5480bd;}.cls-184{fill:#e0fcfe;}.cls-185{fill:#b5ddfd;}.cls-186{fill:#acccf9;}.cls-187{fill:#e4fdfe;}.cls-188{fill:#cedff7;}.cls-189{fill:#5771af;}.cls-190{fill:#d0def8;}.cls-191{fill:#d0ddf8;}.cls-192{fill:#e3f9fe;}.cls-193{fill:#475a92;}.cls-194{fill:#d8f0fe;}.cls-195{fill:#e6fcfe;}.cls-196{fill:#7dbbd2;}.cls-197{fill:#78cbf5;}.cls-198{fill:#7adefa;}.cls-199{fill:#7accf1;}.cls-200{fill:#79c8ee;}.cls-201{fill:#78c2ea;}.cls-202{fill:#6dbef3;}.cls-203{fill:#709ec4;}.cls-204{fill:#f8fcfc;}.cls-205{fill:#e3fdfe;}.cls-206{fill:#6cbce9;}.cls-207{fill:#f8fdfc;}.cls-208{fill:#6fb9e3;}.cls-209{fill:#92bef3;}.cls-210{fill:#feecfe;}.cls-211{fill:#e46eed;}.cls-212{fill:#ea72ee;}.cls-213{fill:#feedfe;}.cls-214{fill:#cd6ff2;}.cls-215{fill:#c455eb;}.cls-216{fill:#c849e6;}.cls-217{fill:#fbd2fc;}.cls-218{fill:#e5fdfe;}.cls-219{fill:#deceeb;}.cls-220{fill:#f0e3fc;}.cls-221{fill:#f2e1fb;}.cls-222{fill:#dbcef0;}.cls-223{fill:#e3dcf6;}.cls-224{fill:#e6ddf6;}.cls-225{fill:#edd9e8;}.cls-226{fill:#e2fefe;}.cls-227{fill:#fcf4fd;}.cls-228{fill:#825b9e;}</style></defs><title>prj_card</title><g id="Layer_2" data-name="Layer 2"><rect class="cls-1" width="480" height="330"/></g><g id="Layer_1" data-name="Layer 1"><path class="cls-2" d="M277.7,324.77l.08,5.23H254a69.11,69.11,0,0,1-4.66-12.25,48.92,48.92,0,0,0-2-5.25,13.52,13.52,0,0,1-.79-4.64,47.3,47.3,0,0,1,2.77-10.7c2.13-5.05,5.55-6,10-2.79s6.46,7.77,9.06,12.14c2.06,3.47,2.87,7.6,5.69,10.71a220.85,220.85,0,0,0-7.71-28.55q-2.23-6.66-4.65-13.25c-.44-1.19-1-2.38-.17-3.62,2.54-.31,2.76,2,3.29,3.38,2.43,6.47,5.08,12.87,6.82,19.58h0c2.93,8.27,4.46,16.85,5.79,25.48A41.8,41.8,0,0,1,277.7,324.77Z"/><path class="cls-3" d="M172.73,330c-.69-7.94.12-15.8,1.31-23.63a2.46,2.46,0,0,1,1.12-.89,176.89,176.89,0,0,1,26.35-.06,2.9,2.9,0,0,1,1.9,3.69c-1.56,6.54-2.74,13.16-4.51,19.65A3.77,3.77,0,0,1,198,330Z"/><path class="cls-4" d="M198,330a142.45,142.45,0,0,1,4.07-19.57c.4-1.46,1.11-2.9-.29-4.21-.05-.26-.13-.61,0-.73,3.87-3.16,3.9-7.46,3.57-11.88.06-2.34-.21-4.69.26-7,.84-2,.13-4.25,1.18-6.18.74-.84,1.47-.36,2.19,0,2.6,1.91,2,4.44,1.23,6.91-1.3,4.1-2.64,8.17-1.84,12.81,1.44-3.15,2.29-6.34,3.89-9.19.56-1,1-2.82,2.57-2.09,1.17.55.5,2,.15,3.12-.24.72-.55,1.42-.82,2.13-1.56,4.18-4.3,8.26-1,12.83l-5.93,23Z"/><path class="cls-5" d="M247.91,312.34A66.06,66.06,0,0,1,254,330h-13.8l-1.39-8.47c.34-1.64-.26-3.56,1.74-4.68,1.08-.6.18-1.6,0-2.38-.69-2.84-1.73-5.58-2.45-8.41-.25-1-.38-2.34.68-2.72,1.25-.45,1.54,1,2,1.83a25.75,25.75,0,0,1,1.83,5C244,315.07,244,315.07,247.91,312.34Z"/><path class="cls-6" d="M184.12,48.86c.12-1.93,1.4-2.34,3.07-2.72A123.79,123.79,0,0,1,224.51,43,132.62,132.62,0,0,1,259.7,50.4,118.82,118.82,0,0,1,296,71.7a122,122,0,0,1,29.56,36.53,31.55,31.55,0,0,1,1.27,3.17c-1.29,1.46-3,1.1-4.66,1.11-6.51,0-13,.18-19.53,0-5.13-.16-10.14,1-15.26.91-2.81-.06-4.11,1.84-4.19,4.46,0,1.52.24,3,.23,4.59-.52,13.25,1,26.46.9,39.71,0,4,.76,8.09.62,12.17-.05,1.51.17,3.08-.82,4.42a1.61,1.61,0,0,1-1.92.18c-1.94-1.13-2.61-3.06-3.07-5.07-1.15-5-2.3-9.93-3.09-15,.38-4.4-1.46-7.58-5.25-9.79-1.64-1-3.19-2.08-4.77-3.16a34.44,34.44,0,0,0-6.93-4c-4.71-2.68-10.07-4.29-13.89-8.44-1-1.38-1.65-3.1-3.25-4-.38-.46-.58-.93-.07-1.44,2.32-1.36,5.23.07,7.48-1.58a17.75,17.75,0,0,0,2.75-2.66c4-5,4.93-11.15,6.3-17.12a9.71,9.71,0,0,0-.93-8.45,9.05,9.05,0,0,1-1.23-4,20.89,20.89,0,0,0,0-3.9c-.15-2.53.59-4.93,1.13-7.36a27.39,27.39,0,0,1,1.07-3.82,31.35,31.35,0,0,1,2.07-4.41c1.19-2.16.56-4.1-.5-6-.77-2.55-2.22-4.84-2.71-7.51s-2.18-3.86-5-3.12c-1.72.45-3.49.68-5.21,1.1-2.66.56-3.88-.56-3.42-3.61-4.53,2.36-9.18,3.48-12.91,6.49-1.37,1.38-2.43,3.08-4.19,4.06-1.77,1.21-3.77,2-5.63,3.06-1.18.66-2.61,1.11-2.77,2.8-.19,2.47.61,4.75,1.22,7.07s1.5,4.87.53,7.43c-1,1.38-2,.37-3,0-4.14-1.4-5.14-.65-5.05,3.82a7.35,7.35,0,0,0,.32,2.22,9.36,9.36,0,0,1,.26,1.06c.44,3.51,1.2,6.81,5,8.29a2.19,2.19,0,0,1,1.1,1.5,16.11,16.11,0,0,1,0,6.08c-.34,1.15-.58,2.34-.88,3.5-1.37,3-1.38,6.6-4,9-7.11,7.64-17,10.2-26.06,14.25-4.52,2.06-9.46,3.1-13.69,5.82-2.38,2.92-2.7,6.64-3.86,10-.89,2.48-4.27,3.12-4.49,6.11a4.13,4.13,0,0,1-5.46,1.69c-1.74-2.89-.32-6.18-1.16-9.18a8.89,8.89,0,0,1-.67-1.73,5.79,5.79,0,0,1,.8-3.59,46.19,46.19,0,0,1,5-7.23c2.28-2.79,2.25-5.56.35-8.44-5.27-8-3.54-16.95-3.36-25.68a2.1,2.1,0,0,1,.73-1.31c2.22-1.39,4.88-.26,7.16-1.26,1.09-5.55,3.42-11.05.35-16.66a11.22,11.22,0,0,0-6-.44,64.68,64.68,0,0,1-11.39.62c-2.31,0-3.67.75-3.52,3.28.25,4.26-.87,8.58.67,12.75,2.22,1.85,5.32.1,7.56,1.84.94,3.78.69,7.64.74,11.47-1,3.27-.47,6.54,0,9.81-1,3.82-2,4.16-4.77,1.47-.8-.78-1.54-1.63-2.41-2.33-1.57-1.12-3-.4-4.13.62a47.12,47.12,0,0,0-7.49,9c-.76,1.15-.35,2.17.21,3.2.67,1.22,1.73,2.2,2.2,3.55a14.09,14.09,0,0,1,.55,2.63c-1,4.6,2.12,7.35,4.73,10.31,1.09,2.89-2.33,3.73-2.7,6,.31,1.48,1.15,2.82,1.1,4.38-.15,2.1-3.54,3.29-1.64,6,1.79,2.93,2.15,6.26,2.15,9.52a149,149,0,0,0,1.06,15.12,37.26,37.26,0,0,0,7.35,17.32c3.14,4.25,5,4.61,9.12,1.48,3.61-2.76,7.56-5.18,10.12-9.11a90.15,90.15,0,0,0,11.36-19.12,6.17,6.17,0,0,1,.52-1c.7-1,1.23-2.47,2.8-2,1.28.38,1.34,1.76,1.36,2.87a30.51,30.51,0,0,0,.73,4.85,42.67,42.67,0,0,0,.78,6.25,68,68,0,0,0,3.37,19.15c2.55,7.38-.84,11.84-5.86,16.07-2.89.67-5.83.34-8.74.35q-19.07.06-38.13,0c-1.76,0-3.58.28-5.21-.71a2,2,0,0,1-.8-1.25c-.36-7.15-.93-14.31.32-21.43.51-1.06,1.61-1.57,2.3-2.47,2.23-2.93,2.33-6-.66-8-3.87-2.54-5.09-6.44-6.72-10.22s-2.8-7.89-5.65-11.1c-1.4-1.78-.51-3.94-1-5.88a7.29,7.29,0,0,1,.55-3.35c1.69-5.67-.37-9.36-6.42-11.36-.13,2,1.21,3.34,1.8,5,1,2.77.17,5.3-2.25,6.48s-4.85.34-6.49-2.23c-.93-1.46-1.2-3.33-2.68-4.54-2.45,4.31-1.35,9.82,2.94,11.41s6.22,4.56,7.85,8.24a84,84,0,0,0,5.54,10.34,59.32,59.32,0,0,1,2.87,5.85c.54,1.36.91,2.76-1,3.52-9,.64-18,.19-27,.25a3.44,3.44,0,0,1-2.77-1c-2.57-5.24-2.77-11-3.77-16.62a84.21,84.21,0,0,1-.8-18.67c1-21.44,6.34-41.6,17.5-60.11A120.22,120.22,0,0,1,128.28,79c12.33-12.14,26.33-22,42.84-27.86,2.59-.93,5.22-1.73,7.81-2.67C180.63,49.15,182.26,50.72,184.12,48.86Z"/><path class="cls-6" d="M271.58,294.76c-2.41-6-4.78-12.1-7.25-18.11-.71-1.73-1.72-3.34-2.59-5-2-1.44-2.46-3.8-3.52-5.8-.33-1,0-2,0-3-.39-1.36-1.51-2.05-2.56-2.81a4,4,0,0,1-1.41-1.6,5.23,5.23,0,0,1-.2-2.75,12,12,0,0,1,2.22-4.33c1.46-2.1,1.76-4.13-.1-6.15-2.1-3.37-4.53-6.7-1.53-10.8a1.6,1.6,0,0,0-.15-1.79c-3.74-4.12-2.89-8.85-1.95-13.65q1.35-6.88,2.28-13.84c1.23-4.06,1-8.48,2.92-12.37,1.23-1.43,1.43-3.88,4-4a4.94,4.94,0,0,1,1.69,3c.73,3.66,2.43,7,3.82,10.38a53.76,53.76,0,0,0,5.11,9.93,17.11,17.11,0,0,0,6.7,7c1.79,1.27,3.37.43,5-.47a116,116,0,0,0,23.86-17.66c1.9-1.84,3.43-4.14,6.06-5.16a6.38,6.38,0,0,1,1.33-.2c32.51-.1,65,0,97.51,0,1.61,0,3.37-.32,4.62,1.19-1.35,1.1-2.95.61-4.43.62q-36.41,0-72.82,0c-2.46,0-3.75.44-4.57,3.12-3.33,11-7.54,21.62-13.94,31.27-1.49,2.25.57,4.71-.13,7.06-2.39-1.54-2.57-4.88-5.11-6.29-.94-2.17-3.05-2.47-5-3.1-3.23-1.47-6.27.59-9.43.62-1.61,0-2.32,2.06-2.58,3.78-.3,1.93-1,3.64-2.88,4.57-2.6.64-3.23,2.5-2.13,4.57a4.72,4.72,0,0,1-.33,5.6,4.46,4.46,0,0,0-.18,5.58c.75.73,1.93.71,2.64,1.51a11,11,0,0,1,1.28,4.6c-9.17,7-18.45,13.85-29.1,18.5-1.68.73-1.4,1.67-.87,3C269.45,285.95,271.42,290.09,271.58,294.76Z"/><path class="cls-7" d="M174,306.37q-24.81-.07-49.61-.12c-2.93,0-5.61-.33-6.94-3.45a92,92,0,0,1-.73-11.46,9.86,9.86,0,0,1,.33-3.45,5,5,0,0,1,5.71-2c13.53,3.78,27.51,4.43,41.38,5.79,3.51.34,7,1.56,10.57.76A2.17,2.17,0,0,1,177,293.6,17.83,17.83,0,0,1,174.28,306,1.84,1.84,0,0,1,174,306.37Z"/><path class="cls-8" d="M115.52,255l-.46-18.23a1.13,1.13,0,0,1,0-1.21,5.46,5.46,0,0,1,4.72-.73c6.1,1.41,11.48.49,15.85-4.32,16.94-.33,33.88-.12,50.82-.11,3.9,0,7.28,4.73,7.22,9.67a9.11,9.11,0,0,1-.81,3.71,6.05,6.05,0,0,1-3.38,3.45c-6.59,0-13.16-1-19.79-.48-4.51.33-9.17-.52-13.26,2.24-4.86-1.4-9.83-.37-14.74-.7-2-.13-4.08.41-5.91-.88a2.23,2.23,0,0,1,0-2.66c1.55-1.19,3.37-1,5.14-1,10.3,0,20.61,0,30.91,0l-31,0a11.2,11.2,0,0,1-4.14-.42c-2.27-1.6-.07-1.75,1-2.5-4.1,2.12-7.54-1.21-11.3-.78a4.13,4.13,0,0,1-1.11-.24c-7.38-1.39-9.11.22-8,7.55a56.2,56.2,0,0,1,.55,6.07c-.15,8.25.66,16.52-.59,24.74a.9.9,0,0,1-1.2.48l-.2-15.79C115.24,260.24,115.89,257.58,115.52,255Z"/><path class="cls-9" d="M317.85,51.64c1-1.5,2.55-.88,3.86-.89,8.8-.05,17.6,0,26.41,0,6.27,0,6.41.21,4.91,6.48-1.17,3.39-.24,6.95-.8,10.41-.36,2.2-1,3.79-3.34,3.71s-2.25-2-2.35-3.69c-.2-3.28.22-6.59-.28-9.85a1.77,1.77,0,0,0-2.13-1.09c-.88.22-.73.83-.4,1.45,1.49,3,.44,6-.29,8.88-.59,2.3-2.93,3-5.28,2.72a24.12,24.12,0,0,1-4.74-1.39c-6.2-2.12-7.12-3.94-5.27-10.23-.4-1.92-.72-2-3-.83a4.82,4.82,0,0,0-.39,2.23c-.14,1.61.1,3.51-1.91,4.14-1.8.56-3.18-.35-4.19-1.85C317.4,58.51,318.49,55,317.85,51.64Z"/><path class="cls-10" d="M116.73,278.61l0-26c7.18-4.66,16.29-1.53,19.48,6.69a6.2,6.2,0,0,1,.34,1.09,7.9,7.9,0,0,1,.17,1.1c0,.36.06.72.07,1.08s.07.71.11,1.06a2,2,0,0,0,.77,1.38c6.46.74,12.92.12,19.37.33,2.14.07,4.31-.26,6.43.37a2.06,2.06,0,0,1,1,.89,1.15,1.15,0,0,1-.64,1.1c-4.88,1.13-9.83.31-14.75.51-3.67.15-7.35-.11-11,.14a2.42,2.42,0,0,0-.88.57,4.37,4.37,0,0,0-.36,1.47c0,.52,0,1,0,1.55,0,.72,0,1.43,0,2.15a16.75,16.75,0,0,1,0,1.7,4.58,4.58,0,0,1-.42,1.71,1,1,0,0,1-1,.55c-2.38-3.77-5.81-5.48-10.24-6.06-3.84-.5-5.78.38-6.45,4.3a50.09,50.09,0,0,0-.21,6.86c-.05,1.63.24,3.34-1,4.73l0,3.08c-1.07,2,.39,4.37-.86,6.36-.83-3.66-.51-7.36-.43-11C116.8,283.72,115.87,281.11,116.73,278.61Z"/><path class="cls-11" d="M329.87,57.7C327.14,62,327.65,66,332.6,67a35.8,35.8,0,0,1,4,1.34c4.31,1.4,6.22.17,6.35-4.33.06-2.08,2.07-4.46-.72-6.22,2-1.14,3,0,3.12,1.76.33,4.15.91,8.35-.77,12.38,2-3.06.77-6.51,1.17-9.77.24-2-.77-4.37,1.42-5.93.93,3.63.14,7.32.47,11,.11,1.21-.88,3.2,1.29,3.36,1.8.14,2.23-1.31,2.59-3,.72-3.4.6-6.8.72-10.2,0-.09.12-.26.19-.26a3.8,3.8,0,0,1,.64.12c.21,6.13-.34,12.23-.69,18.33-.1,1.71-.88,2.14-2.41,2.13-9.95-.08-19.89-.11-29.84-.15a38.82,38.82,0,0,1-1.66-13.06c0-1-.19-2.07.76-2.83,1.21.56,2.18,2.15,3.73,1.27s.63-2.54.84-3.84-.44-2.59.86-3.52c1.27,1.52,1,3.36,1,5.11A48.14,48.14,0,0,0,326.88,72c-.7-3.71-.23-7.47-.67-11.21C325.85,57.65,326.66,57.11,329.87,57.7Z"/><path class="cls-12" d="M293,254.92c-.82-2.43-2.42-4.78.64-7.06a2.86,2.86,0,0,0,.13-4.11c-1.37-1.63-.67-5.57,1.17-6.47.29-.14.88.35,1.33.54-.58,2.65,1,3.81,3.15,4.66.48,1.07.06,2.2.21,3.29.43,3.12,1.62,3.75,4.77,2.47,2.91-1.82,2.5-5.24,3.8-7.83,2.2-.72,2.67,2.06,4.45,2.19,4.05,2.76,3.24,6.32-2.34,9.29,1.29,1.47,3.23,2.43,3.63,4.51v-.08c.17.39.06,1-.19,1-3.44-.22-6.65,2.37-10.13,1-2.33-.95-3,2.24-5.07,1.78l-.75.16c-2.4-.79-1.29-2.9-1.68-4.44C295.43,254,294,255,293,254.92Z"/><path class="cls-13" d="M53.79,124c-1.3-5.78-1.29-5.84,4.47-5.81,5.47,0,10.95.15,16.42.23,3.85.56,2.25,3.56,2.56,5.7-.54,1.72-1.54,3.11-3.46,3-2.15-.11-2.15-2.22-2.81-3.65-.71-.55-1.5-1.51-1.62.4.36,2.13.27,4.17-1.78,5.41-1.76,1.06-3.8,2.09-5.74.89-2.47-1.53-2.15-4.07-1.57-6.49-.06-1-.59-1-.83-.19a30.33,30.33,0,0,1-1.06,4.2,8.8,8.8,0,0,0,0,1.87c0,1.23-.37,2.3-1.87,2.28s-1.86-1.13-2.07-2.27a43.71,43.71,0,0,1-.18-4.87C54.22,124.55,55,123.54,53.79,124Z"/><path class="cls-14" d="M417.36,196.71l-80.62-.09-22.92,0a1.27,1.27,0,0,1,.62-1.24c1.81-.88,3.76-.57,5.66-.58,30.28-.2,60.56-.15,90.85-.15,1.41,0,2.81,0,4.22-.05,2.89,0,4.42-1.55,5-4.3a27.35,27.35,0,0,0,.53-6.48c-.37-17.63,1.3-35.23.8-52.86-.08-2.82.67-5.58.77-8.38a15.94,15.94,0,0,0-1.47-9.67,1.56,1.56,0,0,1,.31-1.18c2.47,1.06,3.22,3.11,3.16,5.58q-.69,28.49-1.41,57c-.13,5.36-.1,10.72-.23,16.08C422.57,193.8,421,196.15,417.36,196.71Z"/><path class="cls-15" d="M421.13,111.68q0,.29,0,.57c-1.69,1.58-3.81,1.19-5.8,1.2q-19.64.09-39.27-.06c-15.79-.5-31.54,1.3-47.32.73q-18.54.1-37.09,0c-6.18,0-6.73.52-7.52,6.49a4,4,0,0,1-.53,1.3.88.88,0,0,1-1.22.3c-.1-1.14-.23-2.28-.31-3.43-.29-4.44,1.7-6.65,6.19-6.73q19.3-.35,38.61-.64c26.5.08,53,.21,79.49-.4C411.26,110.89,416.27,110,421.13,111.68Z"/><path class="cls-16" d="M71.54,122.2c.17.18.44.34.49.55,1.17,4.66,1.16,4.66,4.79,1.71.86,3.13-.14,6.26-.08,9.4,0,2.08-1.82,2.12-3.39,2.12-6.24,0-12.48.11-18.72-.08C53.28,132,53.84,128,53.79,124l.24-2.49.67,0c0,2.31-.1,4.62,0,6.92.07,1.19.35,2.93,1.92,2.69,1.78-.26.65-1.71.44-2.69a1.5,1.5,0,0,1,.6-1.64c2.3.86,1.15,3.06,1.81,4.64a26,26,0,0,1-.2-6.68c.18-1.27.3-2.74,2.26-1.72l-.16.34c-.95,2.12-1.23,4.49.63,5.93s4,0,5.53-1.13c1.8-1.4,1.31-3.54.28-5.41,2.14-.82,2.82.35,2.88,2.19a35.71,35.71,0,0,1-.09,5.78C71.43,128.17,69.76,125,71.54,122.2Z"/><path class="cls-17" d="M96.83,198.14l30.58-.16a6,6,0,0,1,4.51,0c1.64.77,3.76,1.09,3.53,3.66a.93.93,0,0,1-1,.5,15.26,15.26,0,0,0-8.7-1.42c-11.06.12-22.12,0-33.17.07-6.05,0-6.83.84-6.88,6.84,0,1.91,0,3.81-.07,5.72.11,2.61.11,5.23,0,7.84-.6,3.54,1,7.33-1.18,10.69-1.3-3.31-.5-6.77-.73-10.16-.3-4.56,0-9.13-.58-13.7-.82-7,1.95-9.81,9-9.85C93.78,198.21,95.31,198.16,96.83,198.14Z"/><path class="cls-18" d="M398.25,285.64c-1.62,2.66-4,3.63-7.08,3.62-15.68,0-31.36,0-47,0-4.6,0-6.63-1.57-8.12-5.93-.09-2.15-1.41-4.46.78-6.33,1.37,1.28,1,3,1.22,4.61.63,3.67,3,5.06,6.51,5.07,15.51,0,31,0,46.54,0,2.59,0,4.44-1.8,6.84-2.13A.65.65,0,0,1,398.25,285.64Z"/><path class="cls-19" d="M313.91,256.39c-1.11-1-1.88-2.34-3.45-2.82-.7-.21-2.11-.1-1.66-1.48.32-1,.51-2.36,2.18-2.08,3,.5,2.49-2.22,3.25-3.69,1-1.92-.73-2.32-1.9-3a2.44,2.44,0,0,1-.28-3.14c2.66-1.35,4.82-.76,6.5,1.68.11,1-.11,2.61.38,2.86,2.56,1.32,1.52,3.05.83,4.76-.62,1.54-.72,3.35-3.42,3.21C314.75,252.64,313.82,254.54,313.91,256.39Z"/><path class="cls-20" d="M68.36,184.46c-2.67-.23-4.38-1.64-4.4-4.31,0-2.88,1.74-4.44,4.63-4.4a4,4,0,0,1,4.22,4.43C72.76,182.76,71.1,184.31,68.36,184.46Z"/><path class="cls-21" d="M298.52,260c.82-.74,2-1.09,2.27-2.41a1.52,1.52,0,0,1,2.36-1.1c3.72,3.09,7.18-1.11,10.76-.21,2,3.66-2.24,4.65-3.27,4.68C306.62,261.15,302.28,263.27,298.52,260Z"/><path class="cls-22" d="M54.63,135.91c.18-1.1.86-.8,1.66-.78,5.68.1,11.37.07,17.06.11,1.52,0,2.95-.14,2.72-2.15-.33-2.94.82-5.72.75-8.63,0-2.27.87-4.87-2.14-6.08,2.22-.51,3.4.08,3.26,2.65-.23,4.34-.28,8.68-.42,13,0,1.14.08,2.52-1.62,2.46C68.81,136.27,61.69,137.2,54.63,135.91Z"/><path class="cls-23" d="M84.51,231.92l0-10.82c2.38.77,1.62,2.82,1.83,4.47,0,.51,0-.13,0,.38.08,7.4,1.18,8.32,8.48,8,6.75-.27,13.52-.62,20.22.74a.75.75,0,0,1,.15,1.12l-.2.9c-7.86-.09-15.72-.21-23.58-.25C88.11,236.48,85.55,235.41,84.51,231.92Z"/><path class="cls-24" d="M335.92,245.44c1.31-2.81,3.8-3.59,6.57-3.6q25-.06,49.94,0a6.59,6.59,0,0,1,4.92,1.56,2.66,2.66,0,0,1-1.2.73c-15.8-.7-31.6-.17-47.4-.38-4-.06-7.89.21-11.52,2.08A1.38,1.38,0,0,1,335.92,245.44Z"/><path class="cls-25" d="M396.59,243.39l.75,0a6.34,6.34,0,0,1,3.18,6.07q-.38,16.2-.81,32.4a5.09,5.09,0,0,1-1.47,3.79l-.11-.93c-1.64-1.82,0-3.85-.36-5.75.06-2.93,0-5.85,0-8.78.11-5.19-.4-10.4.76-15.53C399.38,250.65,397.78,247.06,396.59,243.39Z"/><path class="cls-26" d="M184.12,48.86c-1.86,3.43-2.66,3.38-5.19-.35-.71-1.6-1.35-3.23-2.15-4.78s.12-2.33,1.2-3.07c1.61-1.1,1.86.39,2.36,1.3C181.62,44.25,182.87,46.56,184.12,48.86Z"/><path class="cls-27" d="M404.93,93.77a3.52,3.52,0,0,1-.47,7c-2.26-.06-3.72-1.42-3.71-3.56S402.09,93.68,404.93,93.77Z"/><path class="cls-28" d="M418.4,97.2c-.22,2.27-1.38,3.63-3.67,3.54A3.28,3.28,0,0,1,411.32,97a3.22,3.22,0,0,1,3.45-3.31C417,93.66,418.2,95,418.4,97.2Z"/><path class="cls-29" d="M336.76,277.1c-1.41,1.93-.28,4.16-.76,6.2a6.09,6.09,0,0,1-.62-1.74c-.32-10.64-.59-21.29-.89-31.93a5.65,5.65,0,0,1,1.42-4.19l.19.29c1,3.36.08,6.92,1,10.29.16,4.37.14,8.75,0,13.12C336.72,271.77,338.61,274.53,336.76,277.1Z"/><path class="cls-30" d="M316.69,231.94a9,9,0,0,1,4.77,6.82c-.14.52.11,1.22-.68,1.43-2.12-.25-4.23-.52-5.82-2.18-.89-1.61-1.51-3.26-.86-5.12A2,2,0,0,1,316.69,231.94Z"/><path class="cls-31" d="M319.19,61.63c0,2.55-.17,5.11.07,7.63s-.86,5.54,2.61,7.17c.68.32-1.59,0-1.78,1.08-.77.16-1.66.28-1.7-.81-.32-8.35-1.44-16.68-.54-25.06C319.22,54.85,317.67,58.44,319.19,61.63Z"/><path class="cls-32" d="M322.42,290.47c-1.24-.08-1.37-.94-1.67-1.56s-1.18-1.41-.34-2a24.67,24.67,0,0,1,5.56-3.23c1.42-.51,2.62,1.73,2.19,2.18A46.21,46.21,0,0,1,322.42,290.47Z"/><path class="cls-33" d="M356.13,233.32a2.46,2.46,0,1,1-4.9-.31,2.25,2.25,0,0,1,2.36-2.4C355.19,230.6,356.08,231.61,356.13,233.32Z"/><path class="cls-34" d="M65.76,277.23a13,13,0,0,1,4.11,4.72c.25.59-.67,1.79-1.23,1.65-2.26-.54-3.23-2.7-4.47-4.36C63.58,278.46,64.86,277.84,65.76,277.23Z"/><path class="cls-35" d="M315.33,238c1.88.59,3.94.72,5.45,2.22l-2.23,1.71a13.71,13.71,0,0,0-6.15-1.67C312.28,238,313.58,237.7,315.33,238Z"/><path class="cls-36" d="M90.57,256.13c1.45.08,2.33.63,2.43,2a2,2,0,0,1-1.91,2.3,2.09,2.09,0,0,1-2.5-2.15A2.14,2.14,0,0,1,90.57,256.13Z"/><path class="cls-37" d="M83.27,164l-6.8-3.37C79.31,160.61,81.46,162,83.27,164Z"/><path class="cls-38" d="M100.35,280.65c-5.69-2.41-5.69-2.41-2.73-5.26C96.08,278.85,99.86,278.58,100.35,280.65Z"/><path class="cls-39" d="M116.64,297.27c.58-2.08-.68-4.41.86-6.36q0,5.94,0,11.87C116.09,301.13,116.54,299.17,116.64,297.27Z"/><path class="cls-40" d="M367.58,58.65l-4.73,5.06-.76-.64L366.81,58Z"/><path class="cls-39" d="M115.52,255c.93,2.58.33,5.23.38,7.85C115.13,260.24,115.36,257.61,115.52,255Z"/><path class="cls-39" d="M116.73,278.61c-.19,2.54.58,5.14-.52,7.61l-.11-7.61Z"/><path class="cls-41" d="M259.24,262.52l-.46,3c-2.66,1.72-5.85,2.16-8.63,3.7a53.46,53.46,0,0,0-13.75,11.14,53.11,53.11,0,0,1-4,6.18,8.19,8.19,0,0,1,.46,2.91c-.37.92-.29,2.23-1.83,2.15l-1-2.27c-1.71-1.73-2.06-4.06-2.76-6.23-.52-1.6-1.28-2.73-3.18-2.72s-2.68,1.1-3.23,2.69-.67,3.32-2.45,4.11c-1.48-4.8-5.75-5.31-9.7-6.3l-1.45-.86a21.4,21.4,0,0,1,.18-15.86,2.86,2.86,0,0,1,1.11-.83c5.46-.51,10.89.68,16.37.35,9.28-.56,18.57-.89,27.23-4.89a3.19,3.19,0,0,1,2.59-.26l1.46,1c-3.81,3.76-8.66,5.51-13.47,7.46,4-1.32,7.92-3.28,12.13-4.19C256.33,262.56,257.7,261.47,259.24,262.52Z"/><path class="cls-42" d="M208.76,280.94h1.51c6.53,0,6.53,0,8.32,6.13,1.21,1.25.21,2.14-.49,3.08L213.17,307c-4.77-4.32-1.66-8.59.08-12.88a24,24,0,0,0,1.42-4.68c-3.16,4-4,9.11-6.7,13.4a23.92,23.92,0,0,1,.58-13.36C209.5,286.77,211.51,283.82,208.76,280.94Z"/><path class="cls-43" d="M232.5,289.34a5.2,5.2,0,0,1-.7-3c1.75-.32,2.08,1.12,2.6,2.2a30.43,30.43,0,0,1,2.25,5.24c.94,3.56,3.06,5.4,6.83,5.1,2.62,2.4,3,5.71,3.63,8.92l.81,4.58c-.29.57-.56,1.15-.88,1.7-.6,1-1.28,2.1-2.57,2s-1.6-1.47-1.92-2.54c-1-3.28-1.71-6.63-3.75-9.63.87,5.9,5.35,11.84,0,17.66l-3.88-16.08c1.61-2.75,1.28-5.38,0-8.24C233.8,294.73,232.25,292.28,232.5,289.34Z"/><path class="cls-44" d="M218.1,290.14l.49-3.08a22,22,0,0,0,1.35-4.37c.28-2.86,2-3.36,4.44-3.57,2.58-.22,3.25,1.22,3.72,3.31.53,2.35,1.31,4.64,2,7C226.15,290.72,222.09,289.9,218.1,290.14Z"/><path class="cls-45" d="M232.5,289.34c1.27,3,2.4,6.15,3.86,9.1s1.59,5.18-1.42,7l-3.87-13.79Z"/><path class="cls-46" d="M247.1,307.76c-2.33-2.33-1.82-6-3.83-8.43a11.74,11.74,0,0,1-3-6.78c.52-3.65,2.55-6.6,4.67-9.42,2.54-3.38,6.48-4.15,10.58-2.4a25.17,25.17,0,0,1,7.74,5.39,11.61,11.61,0,0,0,3.79,2.46c3.83,9.3,5.71,19.16,8.29,28.81.17.63.49,1.66-.45,2s-1.34-.44-1.83-1.07a28.25,28.25,0,0,1-3.06-5.68c-2.89-6.49-5.75-13-11.56-17.61-3.67-2.89-6.58-2.14-8.22,2.32C249,300.72,248.13,304.28,247.1,307.76Z"/><path class="cls-47" d="M267.08,288.58c-2.1,1.17-3.22-.51-4.35-1.67a24.21,24.21,0,0,0-7.35-5.28c-4.37-2-8.25-.74-10.68,3.38a34,34,0,0,0-3.73,7.42c-.38.07-.86.1-1-.25-1.74-3.9-4.66-7.39-4.36-12,6.23-7.24,13.33-13.11,23.19-14.58a20.5,20.5,0,0,1,3,6.06C262.75,277.52,265.86,282.75,267.08,288.58Z"/><path class="cls-48" d="M174.28,306l2.29-12c.13-2.54-.11-5.2,2.24-7,5.72-1.85,11.55-.86,17.34-.67,1.13,0,2.25.4,3.4.44,3.4.12,5.42,1.84,6.08,5.17a5.25,5.25,0,0,0,.85,2.1c.31,4.79.59,9.58-4.65,12.26Z"/><path class="cls-49" d="M206.47,294c-.31-.21-.84-.38-.9-.65-1.09-5-4.72-5.73-9-5.92-5.9-.25-11.8-1-17.65.42-1.27-1.53-.33-3,.08-4.52,1.26-2.82,2-5.84,3.16-8.68,1.19-2,1.2-4.86,3.87-5.94,7.2-.92,13.16,2.11,18.54,6.3,3.83,3,2.2,7.38,2,11.32Z"/><path class="cls-50" d="M206.5,286.3c-.59-3.36,1.41-7.18-2-10a28.91,28.91,0,0,0-15.72-6.82,27.85,27.85,0,0,0-3.05,0c-.62-4.07.1-7.69,3.48-10.42a3,3,0,0,1,1.61-.67c4.69,1.37,9.4,2.69,14.17,3.77,1.2.27,2.51.52,3,2-1.27,5.29-.55,10.67-.67,16C206.84,282.12,208,284.38,206.5,286.3Z"/><path class="cls-51" d="M259.47,141.37c2.66.51,4.71,2.15,6.81,3.68.74,1.76,2.51,2.37,3.82,3.5,2.24,1.95,5.12,3.47,5.36,7-1.15,4.64-4.28,8.13-7,11.89a3,3,0,0,1-2.6,1.26c-1.9,2.67-.91,5.9-1.64,8.79-.36,1.41.12,3-1.2,4.18a8.85,8.85,0,0,1-7.54-1.28c.24-1.79,3-1.86,2.7-4,0-2.51,1.56-5.22.1-7.43s-4.47-1-6.75-1.31c-6.62-.9-13.32-1-20-1.37-7.32-1-14.69-.69-22-.69a5.14,5.14,0,0,0-4.59,8c.8,1.38,2.16,1.12,3.38,1.21,3.15.24,6.35-.39,9.47.52,5.39.94,10.82,0,16.23.33,2.42.12,4.87-.29,7.27.31,3.21,1.43,6.56.15,9.83.45,1.51,0,3.06-.09,4.42.8a1.88,1.88,0,0,1,.21,2.37c-2,2.56-4.77,2-7.39,1.91-6.41-.27-12.83.75-19.19.23a12,12,0,0,0-8.66,2.66,108,108,0,0,1-16,.27,27.15,27.15,0,0,1-14-7.7,120.54,120.54,0,0,0-9.12-7.94,18.45,18.45,0,0,1-4.86-6.58c-2.06-4.95-3.79-10-4-15.4a9.88,9.88,0,0,1,1-5.53c4.15-3.13,9.39-3.77,13.91-6.08,5.08,1.4,10.15,2.84,14.65,5.73,1.32,9.13,7.8,13.77,14.91,17.2-4.12-3.47-8.87-7-11.54-12.49-.7-1.44-1.66-3.3,1.33-3.47,6.45,1.73,12.61,4.28,18.86,6.59a8.57,8.57,0,0,1,2.84,1.77c4,3.4,5.38,3.32,8.81-.51a16.64,16.64,0,0,1,2-2.29,15.47,15.47,0,0,1,1.93-1.17c5-2.49,10.43-3.85,15.74-5.48A2.74,2.74,0,0,1,259.47,141.37Z"/><path class="cls-52" d="M177.43,162.79c1.46,1.83,2.49,4,4.52,5.38-.62,1.59,1.76,3.67-.35,4.79-1.9,1-3.58-.71-5.17-1.66-1.4-.83-3-1.45-4-2.86.1.84.3,1.72-.68,2.24-1.84-.61-1.22-2.64-2.67-4.24a163.71,163.71,0,0,1-1.29,28.33,57.36,57.36,0,0,0,3.13-14.06c.12-1.48-.24-3.11,1.21-4.22a1.11,1.11,0,0,1,.7.28c4.68,6.45,5,20.38.67,26.85-3.36,5.29-8.43,8.63-13.67,11.7-2.06,1.21-3.75-.27-5-1.71-4.73-5.6-8.43-11.73-9-19.29-.45-.75-.41-1.81.51-1.58,2.29.58,4.35-1.16,6.61-.34,1.94.7,2.42-1.3,3.52-2.15a31,31,0,0,0,8.28-21.52,109,109,0,0,1,.35-11.28c-.68-3.6,3.54-3.16,4.46-5.44C172.14,155.66,173.94,159.84,177.43,162.79Z"/><path class="cls-53" d="M256.93,94.1c1.34,4.15,4.82,7.89,2.4,12.75-.64,1.26-1.59,1.13-2.4.34-1.55-1.51-3.7-2-5.33-3.31-.3-1,.66-1.25,1.14-1.77-1.68.54-3.18-.44-4.78-.55,1.4,1.87-.08,2.07-1.38,2.39-4.62.07-9.25.06-13.62,1.89a3.73,3.73,0,0,1-1.81,0c-3.86-2.86-7.36-6-7.8-11.21,1.29-1.57,1.29-1.57,3.81.47,1.73-4.15,4.69-4.67,8.66-3.25,1.78.64,3.84,1.46,5.9.53a5.46,5.46,0,0,1,1-.38,1.86,1.86,0,0,0,1.69-1.33c1.13-4.3,2.42-8.57,2.3-13.08-1.45-1.25-2.88-.09-4.3,0-2.09.2-4.11,1.35-6.29.51-1.33-1.72.21-2.53,1.18-3.36,5.63-4.83,15.08-4.53,20.7.6a3.55,3.55,0,0,1,1,2.12c-.79,2.24-2.71,3.81-3.61,6a16.77,16.77,0,0,0-1.64,7.28C254.69,91.92,255.22,93.58,256.93,94.1Z"/><path class="cls-54" d="M225.69,149.84l-19.22-6.95c-.55-.6-1.58-.17-2-1-1.65-2.55-1.06-5.51-1.41-8.3-.23-.48-.92.17-.47-.05.18-.09.29,0,.33.19a16,16,0,0,1-.61,7.32l-.43.39c-4.65-2.43-10.09-3-14.45-6.14,6.26-2.71,12.52-5.44,18.79-8.12a9.7,9.7,0,0,0,3.7-3.14c.9-1.11,1.54-2.74,3.46-2.55a117.08,117.08,0,0,1,5.87,10.38c3.16,6.18,6.47,12.17,14.65,12.46a2.18,2.18,0,0,1,1.94,1,2.1,2.1,0,0,1-.2,1.07,3.23,3.23,0,0,1-.78,1c1.72,0,3.46-.56,4.73.95a25.75,25.75,0,0,1-2.23,3.08c-3.57,3.68-5.69,3.59-9.46-.27,1.15-1,2.4.26,4.1-.18A10.28,10.28,0,0,0,225.69,149.84Z"/><path class="cls-55" d="M156.64,191.24c-1.14,1.61-1.89,3.08-4.65,1.85-1.55-.69-4,.75-6.12,1.23-1.47-4.92-1.5-10-1.57-15.06,0-3.83-.44-7.59-2.33-11,0-1.48.86-.81,1.37-.43,1.19.88,2.18,2.07,4.13,2.44a10.68,10.68,0,0,1-3.09-7.4l-1.56-4.59a1.39,1.39,0,0,1,1.09-.1c6.85,2.28,8.38,1.71,12.5-4.32,1-1.4,1.33-3.36,3.31-3.92,1.56,3.18.2,6.58.76,9.83,1.37,1.67.89,3.56.69,5.45-.69,6.69-2.59,13.13-4,19.67A21,21,0,0,0,156.64,191.24Z"/><path class="cls-56" d="M145.93,152.9c-3.23-2.82-6.66-5.55-4.71-10.66a1.84,1.84,0,0,1,1.12-1.45c5.16-1.59,8.67-5.6,12.82-8.67s4.14-3,1.61-7.53c-.72-3.36-1.87-6.71,0-10.08,3.43-.76,3.94-.3,3.8,3.35-.07-4.86-1.35-9.77.35-14.57a.75.75,0,0,1,1.15-.13c0,3.31.13,6.63-.13,9.91a26.46,26.46,0,0,0,4.53,17.7c1.6,2.33,1.26,4.55-.31,6.69-2.1,2.85-4.24,5.67-6.37,8.5a17.91,17.91,0,0,1-12.78,7.3A1.74,1.74,0,0,1,145.93,152.9Z"/><path class="cls-57" d="M271.78,212.59a43.44,43.44,0,0,1-5.31-10c-1-7.17-.46-14.38-.44-21.57,0-4,.81-4.4,4.8-4.51a28.47,28.47,0,0,1,11.49,1.78l.87.56c.58.44,1.54.22,1.9,1.06a2.46,2.46,0,0,1-.13,2.21c-5.19,5-7,11.55-8.81,18.16-.83,2.63-1,5.56-3.79,7.23-1.16.69-.31,1.8,0,2.75S273.49,212.22,271.78,212.59Z"/><path class="cls-58" d="M188.83,229.49a6,6,0,0,1,2.29-3.83c3.56-2.59,3.1-5.72,2.12-9.37a90.29,90.29,0,0,1-3.6-21.23c3.7.68,5.38,3.51,6.91,6.51.55,3.8-.11,7.65.66,11.46a15.75,15.75,0,0,0,3.4,7.17,39.12,39.12,0,0,0,43.87,11.18c2.11-.83,4-2.26,6.47-2.22a1.08,1.08,0,0,1,.85,1.43c-1.39,2.15-3.6,3.23-5.84,4.06-12.28,4.58-24.65,5.59-37.09.6-2.51-2.52-5-5.08-9-5.1a6.53,6.53,0,0,1-2.11-1.51c-4-3.64-4-3.64-7,.89a1.51,1.51,0,0,1-1.51.31Z"/><path class="cls-59" d="M232.38,105.24c4.66-2.74,9.76-2.4,14.85-2.1.79.58,2.11-.22,2.66,1,.57,1.94-.05,3.16-2.09,3.56-1.72.24-3.24-.5-4.83-1A4.61,4.61,0,0,0,237.4,109c-1,1.58-.18,3,1.07,4,1.86,1.61,3.67,1.85,5.85.25,4.15-3,5.35-2.78,7.89,1.82.92,1.67,2.35,1.17,3.52,1.71.06,3-2,5.15-3.24,7.61a5,5,0,0,1-2.25,2.53c-3.72-.78-7.53-.45-11.27-.94-5.67-1.47-6.87-2.88-7.51-8.81-.26-2.39-.6-4.77-.91-7.14A5,5,0,0,1,232.38,105.24Z"/><path class="cls-60" d="M282.33,178.33a1.91,1.91,0,0,1-2.46.4c-3.39-2.14-7.19-.18-10.72-1.21-2-.58-2.11,1.2-2.1,2.69,0,6.25,0,12.5,0,18.74,0,1.23.4,2.57-.56,3.67-1.56-3.48-3.23-6.91-3.89-10.71,4.09-7.57,1.79-16,3-23.89,1.67.36,2.2-1,2.85-2,2.29-3.47,4.94-6.74,6.37-10.72,1.13-.93,1.56-.25,1.75.8.13.74-.12,1.54.37,2.21C278.64,165,278.78,172.13,282.33,178.33Z"/><path class="cls-61" d="M118.42,179.63c-1.9-3.55-3.81-6.67-8.24-8.13-3.94-1.3-5.5-8.6-3.56-12.47a2.2,2.2,0,0,1,1.64-1.43c1-.14,1.22.74,1.51,1.41.66,1.52,1.26,3.07,1.9,4.6,1.09,2.59,3.37,2.93,5.41,2a3.62,3.62,0,0,0,1.84-5.41c-.73-1.35-1.48-2.69-2.14-4.07-.35-.74-1.29-1.52-.34-2.37a2.18,2.18,0,0,1,2.83,0c4.57,2.94,9.35,6.46,5.47,14.08a5.79,5.79,0,0,0-.25,1.86c.06.11.2.25.17.33C123.23,173.63,120.36,176.33,118.42,179.63Z"/><path class="cls-62" d="M232.38,105.24l.74.19c-3.77,5-.16,10.12,0,15.16.06,2.87,3.09,3.86,5.62,4.65-2.53,1.78-5,1.1-7.43-.2-1.45-.77-2.59-2-4.12-2.66-4.33-3.33-8.07-7.09-9.31-12.68l.4-6.48a3.61,3.61,0,0,1,1.65-2.65c2.9-4.79,2.85-4.75,6.21-.09,1.38,1.91,2.86,3.8,5.19,4.71Z"/><path class="cls-63" d="M171.87,170.52l.32-2.62c3.28,1.27,5.76,3.8,9.12,4.72,1.08-1.42-1.38-3.26.63-4.45,3.89,3.46,7.69,7,11.69,10.33a30.31,30.31,0,0,0,9.78,5c1.64,3.05-1.63,4.3-2.37,6.48a2.86,2.86,0,0,1-1.35,1c-2.12.34-3.6-1-5.15-2-3.16-2.15-3.14-2.18-5.65,0-1.31-2.29-.31-5.08-1.43-7.54-1.63.9-1.56,2.67-2.58,3.71-2.07.17-2.2-1.68-3-2.85-2.76-4-4.68-8.77-10.09-10.07A1.42,1.42,0,0,1,171.87,170.52Z"/><path class="cls-64" d="M188.89,188.88c.72-.52.66-1.29.71-2,.17-2.43,1.07-2.58,2.72-.94,2.06,2.06,4.27,3.93,7.25,4.56,3,14.05,11.54,23.75,24.1,30.2,1.55,1.15,3.53,1.51,5,2.73.47.38,1,.83.61,1.57a1.46,1.46,0,0,1-1.35.57,7.67,7.67,0,0,1-2.24-.45c-11.88-3.23-20.62-10.85-28.2-20.13-.92-1.13-1.13-2.54-1.8-3.75a29.53,29.53,0,0,0-6.09-6.14A13.5,13.5,0,0,1,188.89,188.88Z"/><path class="cls-65" d="M218.6,132.23c-1.81-3.53-4.83-6.47-5.25-10.68,2-2.56,2.27-5.88,3.69-8.71,2,1.13,2.76,3.25,3.67,5.16a119.59,119.59,0,0,0,6.89,11.81c2.94,4.71,7,6.27,12.27,4.31a1.23,1.23,0,0,1,.77.84c-1.18,5.7-8.24,8.55-14,5.6A19.1,19.1,0,0,1,218.6,132.23Z"/><path class="cls-66" d="M162,103.16l-.77,0a3.56,3.56,0,0,1-4.56-.1c-2.85-.52-5.85.61-8.63-.76-.52-2.14-.2-4.31-.22-6.46-.06-5,0-5,5.07-4.64,3.72,1.46,3.72,1.46.9,6,3.14-1.85,5.92-2.9,9.33.54-.51-2.59-3.71-4.16-.66-5.73,2.77-1.17,5.54-2.7,8.4-.21-.18,3.66.34,7.36-.48,11Z"/><path class="cls-67" d="M240.18,134.33c-6.19,3-9.28,2.26-13.37-3.88A141,141,0,0,1,217,112.83c.13-1.08,0-2.22.79-3.14,2.72,4.22,5.09,8.72,9.26,11.8a18.61,18.61,0,0,0,11.5,5.17,3.62,3.62,0,0,1,3.21,1.74l.62.78C243,131.47,242.39,133.26,240.18,134.33Z"/><path class="cls-68" d="M156.64,191.24c-2-1-1.41-2.55-1-4.28,1.9-9,4.73-17.89,4.9-27.22,1.54-.79,3.91.11,4.65-2.29C167.28,169.7,165.58,183.51,156.64,191.24Z"/><path class="cls-69" d="M172.05,172c3.42-.53,5.3,1.49,6.93,4.07,1.91,3,3.93,6,5.9,8.94-3.06,6.64-6.26,13.2-11.38,18.57,4.49-9.29,1.52-18.17-1.46-27.05A3.05,3.05,0,0,1,172.05,172Z"/><path class="cls-70" d="M258.44,77.58l-.79-1.48c-2.69-3.27-5.85-5.71-10.32-5.84a5.17,5.17,0,0,1-3.23-.74c-.31-2.15,1-1.45,1.84-1.48-1.41-1.52-4.53.12-5.9-2.3a1.34,1.34,0,0,1,.64-.8c2.21-.84,4.4-.21,7,.21-1.15-1.82-1.72-3.62-3.91-3.93a34,34,0,0,0-10.44.87c-1,.21-2.36,1.42-3.18-.42,2-2.56,5-3.42,7.83-4.49a29.43,29.43,0,0,0,6.24-3.1c1.73,1.15-2.08,5.18,2.71,4.36,6.45-.77,6.87-.51,8.28,5.55.48,2.05,1.06,4.08,1.41,6.15,1.19-1,1.11-5.52,4.23-1.61,2.74,1.84,1.63,4.12.66,6.33-.66,1.5-1.45,2.94-2.18,4.4C258,79.29,258.19,78.45,258.44,77.58Z"/><path class="cls-71" d="M170.37,91.51c-2.93-.37-5.62.52-8.29,1.55-.86-1.46,1.53-2,.86-3.72-2.61,1.64-5.08,2.57-8.14.43-1.35-.94-.6,1.56-1,2.4-.5,0-1-.07-1.5-.13-2.93-.39-4.68.25-4.14,3.84a38.5,38.5,0,0,1-.06,6.43c-1.4-5.61-.26-11.3-.52-16.94a1.29,1.29,0,0,1,1.39-1.47c7.18.44,14.32-1.56,21.51-.22A9.1,9.1,0,0,1,170.37,91.51Z"/><path class="cls-72" d="M140.54,139.83c-.82-1.12-1.69-2.22-2.46-3.37-1.18-1.75-1.07-3,.4-4.95,1.94-2.58,4.15-4.92,6.11-7.46,1.46-1.9,3.37-2.95,5.86-1.84.4,2.64.66,5.3,1.18,7.93,1,4.75-.67,7.55-5.43,8a6.13,6.13,0,0,0-3.92,1.8A1.28,1.28,0,0,1,140.54,139.83Z"/><path class="cls-73" d="M131.51,198.78l-4.1-.81c-.63-3-2.74-5.43-3.71-8.32.28-.54.15-1.4.77-1.64,4.16-1.62,2.87-4.42,1.81-7.36-.64-1.77-2.27-3.44-1.06-5.59,3.45,2.52,4.06,6.65,5.71,10.17,1.84,3.93,3,8,7,10.83s3.19,8-1.24,10.49a3.28,3.28,0,0,1-1-2.57C136.07,199,135.71,198.58,131.51,198.78Z"/><path class="cls-74" d="M219.31,86.82c.58-3.11-.27-6-1.2-8.93-.72-2.25-1.79-4.53-.68-7A29.15,29.15,0,0,0,226,67.73c5.33-3.1,11-1.68,16.38-.36,2.13.52.43,1.53-.59,2-3.13.45-6.28.15-9.42.23-1.81,0-3.53.23-4.77,1.76-.36.52-1,1.12-.77,1.67,1.84,5.36-2.12,9.31-3.32,13.92-.48,1.83-1.67,2.44-3.44,1.45A1.58,1.58,0,0,1,219.31,86.82Z"/><path class="cls-75" d="M219.31,86.82l.71,1c4.29,4.33,2.84,8.49,0,13.63l-1.78,1.77c-5.12-1.51-6.57-5.32-6.37-10.17.28-.53.95.59.93-.09,0-1.74-.83-4.1,1.83-4.1s2.63,2.24,2.26,4.3c-.08.46-.28,1,.14,1.46,1.2-1.4.78-2.81,0-4.15s-1.87-2.34-3.39-2-.93,1.85-1.07,2.91a2.62,2.62,0,0,1-.71,1.71C210.55,91.69,211,90,211,88.4a3.58,3.58,0,0,1,5.1-3.54A18.17,18.17,0,0,1,219.31,86.82Z"/><path class="cls-76" d="M259.47,141.37,241,147.5a2.21,2.21,0,0,1-.14-2.5,46.47,46.47,0,0,0,3.06-9.75,2.67,2.67,0,0,1,1.7-2.32C249.6,136.77,255,138.22,259.47,141.37Z"/><path class="cls-77" d="M125.22,175.06c1,2.59,2,5.14,2.89,7.77s1.22,5.06-2.69,5.46c-.62.06-1.15.89-1.73,1.36-2.24-3.08-3.68-6.59-5.27-10-.22-4.68,4.42-6.42,6.06-10C125.83,171.31,124,173.4,125.22,175.06Z"/><path class="cls-78" d="M140.54,139.83a68.31,68.31,0,0,1,9.17-4c2.11-.68,1.53-2.51,1.31-4.17-.42-3.13-2.41-6.18-.56-9.45,1.65.54,2.37,2.06,3.42,3.24.55.62.92,1.62,2,1.33s.64-1.44.92-2.19c.86.74,1.75,1.44,2.57,2.22,1.6,1.52,1.35,2.75-.52,3.91-6,3.69-10.55,9.48-17.6,11.52C140.39,141.61,140.56,140.69,140.54,139.83Z"/><path class="cls-79" d="M245.6,132.94A81.64,81.64,0,0,1,241,147.5l-1.42.89H234c-.16-1.72,1.37-2.1,1.57-3.21.61-2.64,3.06-4.21,3.87-6.75.41-1.29,1.46-2.4,1-3.91l-.23-.19,2.24-5.14C245.13,129,244.54,131.69,245.6,132.94Z"/><path class="cls-80" d="M241,65.46l-.73.06c-4.57,1.3-9.15,2.13-13.72,0l3.63-3.82c4.83-.92,9.63-2.21,14.63-1.59C246.13,64,245.81,64.48,241,65.46Z"/><path class="cls-81" d="M146.6,152.94c5-1.07,9.07-4.07,13.14-7l-.82,3.08c-1,4.75-4,7.84-8.28,9.83-1.27.59-2.68,1.28-4,.19s-1-2.52-.54-3.91C146.38,154.44,146.13,153.61,146.6,152.94Z"/><path class="cls-82" d="M260.88,68.56c-3.6-1.92-2.29,2.63-4.25,3.06-1.32-2-1.66-4.43-2.22-6.81-1.42-6.12-1.47-6.11-7.46-6.34a21.82,21.82,0,0,1,2.16-.67c7.35-1.5,7.31-1.48,9.7,5.61C259.42,65.16,261.16,66.46,260.88,68.56Z"/><path class="cls-83" d="M177.43,162.79c-4.77-2-6.46-6.28-7.82-10.77.81-3.71.93-7.67,3.89-10.59C172.65,148.94,175.19,155.84,177.43,162.79Z"/><path class="cls-84" d="M226.55,65.51c3.16,1.33,6.42.86,9.62.35a20,20,0,0,1,4.1-.33c2.14,1.37,5.09.24,7.17,2.45-1,1.08-2.48.15-3.42,1-1,1.25-1.74,1.25-2.3-.32.12,0,.28,0,.36-.1a3,3,0,0,0,.35-.49c-6-.45-12.18-2.69-17.91,1.68-1.89,1.44-4.41,2.76-7.1,1.2C219.73,67.85,223.46,67.22,226.55,65.51Z"/><path class="cls-85" d="M156.7,103.08l4.56.1c0,5,0,10.07,0,16.33-1.18-3-1.5-5.58-4.54-5C156.7,110.7,155.6,106.89,156.7,103.08Z"/><path class="cls-86" d="M284.65,179.75c-.61-.07-1.2-.18-1.46-.86,1.48-4.46.46-9,.39-13.5,0-.63-.31-1.26-.3-1.88.19-13.78-1.36-27.52-.91-41.3l.73,0c1.38,1.28,1.18,3,1.23,4.63.09,2.92.3,5.83.39,8.74.44,14.57,1.62,29.13,1.11,43.72A.83.83,0,0,1,284.65,179.75Z"/><path class="cls-87" d="M252.5,124.47c.29-2.9,3-4.92,2.92-7.94a2.53,2.53,0,0,1-.37-2.18c.86-5.65.85-5.61-4.6-5.81-1.28,0-2.93.39-3.39-1.57,2.23,0,2.51-1.34,2.29-3.1a1.66,1.66,0,0,1,2.32-.25c2.13.61,4.44.92,5.73,3.08.58,1,1.26.36,1.92.15C258.21,113.17,256.93,119.43,252.5,124.47Z"/><path class="cls-88" d="M241.8,128.41c-5.35-1.35-11.11-1.84-14.71-6.91.58.17,1.35.17,1.72.55,2.73,2.89,6.09,3.68,9.89,3.2,2.66,0,5.31,0,8,0a4.08,4.08,0,0,1,3.6,1.71C247.78,129.54,244.59,127.79,241.8,128.41Z"/><path class="cls-89" d="M146.6,152.94c.34,1.91-1,4.71.86,5.57,2.06.94,4.21-1.14,6.08-2.34,2.62-1.69,4-4.42,5.38-7.12l.8.86a62.18,62.18,0,0,1-4,6.43c-4.18,5.28-7.31,5.66-12.92,1.92-.71-1.35.55-1.74,1.24-2.09a3.14,3.14,0,0,0,1.86-3.26A3.5,3.5,0,0,1,146.6,152.94Z"/><path class="cls-8" d="M136,229.66l52.85-.17a.54.54,0,0,0-.12.37c-.67,1.46-2,.8-3,.8-16.39,0-32.78.07-49.17,0Q135.63,230.53,136,229.66Z"/><path class="cls-90" d="M252.45,91.52c.37-2.92.45-5.9,2.12-8.49,1.31-.27,2.65-1.31,3.89.15l-1.37,7.48A4.33,4.33,0,0,1,252.45,91.52Z"/><path class="cls-91" d="M136,229.66q0,.33,0,.66a1.1,1.1,0,0,1-1.22,0,2.83,2.83,0,0,1-1.12-1.61,36.87,36.87,0,0,1-.2-8.76c.81-4.29.48-8.63.59-13,0-1.75-.28-3.61,1.15-5.05l.09-.17c1.27-.19.81,1.17,1.41,1.58l0,3.17C135.29,214.22,136.08,222,136,229.66Z"/><path class="cls-92" d="M144.39,162.84c1.42,2.62,2.13,5.59,4.34,8-3.34,1.26-4.55-1.89-6.74-2.62C140.19,165.27,143.94,164.8,144.39,162.84Z"/><path class="cls-93" d="M277,158.32c-1.22-.65-.08-3-2.12-3-1-3-3.55-4.51-5.73-6.43-1.18-1-3.22-1.57-2.83-3.81,1.91,1.26,3.78,2.59,5.75,3.75C275.69,151,277.4,154.07,277,158.32Z"/><path class="cls-94" d="M276.16,71.67c-1.47-1.95-3.28-4.84-2.34-6.39,1.17-1.94,4.1.35,6.33.41a25.71,25.71,0,0,1,5.14,1.17c1.05.25,2.72-.08,2.83,1.29s-.84,2.52-3,3.34c2.71-3.3,1-3.71-1.57-4-2.83-.32-5.62-1.1-8.67-1.72l1.43,5.76Z"/><path class="cls-95" d="M304.87,101.76c-.59,2-2.54,2.7-4.16,3.1-1.29.32-2.11-1.8-1.94-2.63.43-2,2.63-2.59,4.28-3.09C304.33,98.77,304.26,100.64,304.87,101.76Z"/><path class="cls-96" d="M186.87,121.81c-.2,1.47-1,2.5-2.43,2.5a2.34,2.34,0,0,1-2.58-2.63,2.29,2.29,0,0,1,2.36-2.45C185.92,119.19,186.7,120.25,186.87,121.81Z"/><path class="cls-97" d="M170.37,91.51l.08-7.82c2.38,1.49,1.58,3.86,1.49,5.91-.18,3.92-.91,7.81-.65,11.76a1.23,1.23,0,0,1-.89,1.47Q170.38,97.17,170.37,91.51Z"/><path class="cls-98" d="M258.47,83.18c-1.28-.53-2.63.79-3.89-.15a18.23,18.23,0,0,1,3.86-5.45l.93,1.71Z"/><path class="cls-99" d="M252.45,91.52c1.57-.14,3-1.17,4.64-.86,1.21,1.2-.55,2.27-.16,3.44-.61.49-.74,1.76-1.9,1.34-1-.36-.56-1.06-.34-1.8C255.3,91.59,252.67,92.8,252.45,91.52Z"/><path class="cls-100" d="M276.32,71.53c1.7,2.45,2.4,5.31,3.26,8.1a16.27,16.27,0,0,1-3.43-8Z"/><path class="cls-101" d="M198.61,90.47l3.31,6.44A7.72,7.72,0,0,1,198.61,90.47Z"/><path class="cls-102" d="M223.28,221.16c-12.36-5.68-20.47-15-24-28.18a3.58,3.58,0,0,1,.32-2.53l.79-.74c4.24-3.84,9.62-4.27,14.9-5,4.41-.64,8.87-.2,12.88-.77-2-.75-4.71,1.43-7.11-.37,1.78-2.21,3.24-5.36,6.85-2.44,4.61-3,9.83,1.89,14.53-1.15,1.22-.79,2.94,0,4.46.27a16.71,16.71,0,0,0,8.66-.51h0a22.49,22.49,0,0,0,7.62,1.53c1.57,2.08,1.3,3.92-.69,5.55-4.25.17-8.33-1.52-13.11-1.36,3.17,2.84,6.86,4.32,9.27,7.35-1.79,3.88-1.33,8.31-2.94,12.24-1.37,3.58-1.33,7.51-2.77,11.07-.86,1.4-1.85,2.71-2.8,4-1.38,1.94-3.13,2.49-5.48,2.69-5.84.48-11.59-.75-17.4-.48A8,8,0,0,1,223.28,221.16Z"/><path class="cls-103" d="M208.71,234.15c9.44,4.29,19.21,3.65,29.06,2a36.61,36.61,0,0,0,13.88-5.85c2.24,1,3.88,2.27,3,5.07a11.37,11.37,0,0,1-5.23,3.72c-6.54,2.49-13.22,4.24-20.3,3.9-.51,0,.23.68,0,.22-.09-.19,0-.31.32-.2,9,3.6,18.3,2.11,27.54,2.06,2.13,1.75,2.17,3.7.66,5.9-1.06,1.54-2,3.17-3,4.76-.65,2.91-2.93,4.06-5.44,4.74a86.09,86.09,0,0,1-38.91,1.72,5,5,0,0,1-2.44-1,2.89,2.89,0,0,1-.11-3.24c2.31-1.4,4.78-.44,7.07-.17a126,126,0,0,0,28.43-.34,131.71,131.71,0,0,1-31.6,0c-3.22-.37-4.09-1.76-3.87-5.32.17-2.85,1.8-3.67,4.33-3.62,1,0,1.94.57,3-.06-2-2.25-5.37-2.56-6.91-5.25C207.51,240.11,206.91,237.06,208.71,234.15Z"/><path class="cls-104" d="M313.17,196.75a118.72,118.72,0,0,1-29.92,23.37c-1.92,1.08-3.28.94-4.7-.53a4.54,4.54,0,0,1-.44-4,60,60,0,0,1,9.32-15.06,1.71,1.71,0,0,1,1.74-.46,1,1,0,0,1,.34.17c3.85,4.35,5.29,4.2,8.43-.89.85-1.39,1.32-3.12,3.2-3.61C305.17,195.84,309.33,194.38,313.17,196.75Z"/><path class="cls-105" d="M289.28,200.41c-5.29,5.43-9.75,11.32-10.72,19.17-3.36-1.26-5.22-4-6.78-7,.82-.72.24-1.27-.17-1.91-1.12-1.79-2.83-3.44,1-4.5,2.39-.65,1.31-4.06,2.8-5.76,1.91-4.08,2-9.07,6-12.14,1.43-.56,2.94-.72,3.23,1.17.52,3.39,2.77,5.41,5.16,7.42A3.11,3.11,0,0,1,289.28,200.41Z"/><path class="cls-106" d="M315.33,238c-1,.73-2.41.91-2.93,2.26q0,1.56-.07,3.13c-2.2.15-2.54-2.26-4.11-3a.88.88,0,0,1-.92-.22c-1.08-1.83-2.55-2.38-4.49-1.33-1.74.74-2.11,2.8-3.61,3.76-1.67.15-3.19-.07-4.18-1.67s.75-2.07,1.2-3.08c1.19-1.13,2.3-2.23,2.33-4.11.06-3.84,2.45-5.67,6.16-4.93.46.09,1.27.3,1.36.14,1.67-3,3.54-1,5.37-.28-.45,2.47,1,3.51,3.08,4Z"/><path class="cls-107" d="M257,245.07c-9.83,2.33-19.52,2.59-29.33-2.15,9.61-1.68,19.16-2.19,27.08-8a.69.69,0,0,1,.95.07C251.7,238.9,255.8,241.79,257,245.07Z"/><path class="cls-108" d="M208.1,260.92c6.44.6,12.81,1.71,19.33,1.66,7-.06,13.87-1.33,20.73-2.57a10.69,10.69,0,0,0,6.45-4.28l.18,2.86c-8.22,5-17.53,5.42-26.7,6.13a83.11,83.11,0,0,1-19.33-.77C207.43,263.18,206.93,262.23,208.1,260.92Z"/><path class="cls-109" d="M258.62,192.77c-4-1.4-6.7-4.91-10.55-6.57a.93.93,0,0,1-.52-1.26c.34-.73,1.07-.64,1.65-.59,4.22.41,8.53.33,12.48,2.27a1.61,1.61,0,0,1-.12,2.42C260.05,189.87,259.9,191.76,258.62,192.77Z"/><path class="cls-110" d="M261.56,189l.12-2.42c2.32-1.29,1.37-3.49,1.48-5.39-.41-4.5,1.36-8.85.85-13.36-.07-.59-.25-1.73,1-1.44.32.08.44,1,.65,1.59.54,8.16,3,16.57-3,23.89Z"/><path class="cls-111" d="M255.66,235l-.95-.07c-.48-1.89-2.06-3-3.06-4.6l-.75-.77a3.6,3.6,0,0,1-.92-2.79c0-1.91.78-3.76.53-5.7a38.25,38.25,0,0,1,1.93-5.28c1.11-3.57,1.07-7.5,3.24-10.75-.86,5.88-1.42,11.81-2.68,17.6a9.46,9.46,0,0,0,2,8.8C255.78,232.38,257.22,233.45,255.66,235Z"/><path class="cls-112" d="M289.35,196.66c-3.6-.55-5-3.2-5.32-6.3-.22-2.14-1.27-1.6-2.45-1.45.16-2.59.42-5.1,3.8-5.45,1.56,1.55,1.09,3.56,1.2,5.43.25,4.39,1.42,5.65,5.84,5.76,5.35.14,10.71,0,16.06.05,1.65,0,3.33-.16,4.87.66l.48.48q0,.37,0,.74a5.25,5.25,0,0,1-.65.17L300,196.64A11.76,11.76,0,0,1,289.35,196.66Z"/><path class="cls-113" d="M259.24,262.52c-2.9.85-5.8,1.69-8.69,2.55-2.73.82-5.25,2.33-8.45,1.93l14.15-7.4C257.62,260.2,258.91,260.87,259.24,262.52Z"/><path class="cls-114" d="M314.53,232.69c-1.38,0-3,1.23-4-.42-.78-1.28.3-2.5,1-3.63,1.79,1,5.09-.35,5.24,3.29Z"/><path class="cls-115" d="M293,254.92c.76-.76,1.58-1.69,2.73-1.18.65.29,1.37,1.12.4,2C295,255.55,293.77,256.1,293,254.92Z"/><path class="cls-116" d="M179.65,283.25l-.78,4.58c-1.56,1.75-.75,4.39-2.31,6.13-.43-.24-.89-.73-1.28-.67-8.33,1.2-16.38-1.53-24.61-1.75-1.12,0-2.24-.64-3.35-.6-8.73.38-17-2-25.22-4.34-2.06-.59-2.92,1.36-4.56,1.25,0-3.68-.17-7.37,0-11,.28-5.43,3.24-7.32,8.31-5.53.36.13.75.41,1.07.35,5.13-1,7.12,2.53,9,6.24a1.64,1.64,0,0,1,.55.72,4.65,4.65,0,0,1,.18.91c0,.31,0,.62.06.93s0,.63,0,.94c0,.48,0,1,0,1.43s0,1,.06,1.45.1,1,.18,1.44c1.4,2.09,3.65.74,5.42,1.33,2.28,1.2,4.7.57,7.07.57,4.43,0,8.85,0,13.28,0a4.85,4.85,0,0,0,3.42-1.35c1.64-1.51-.9-1.6-.85-2.63,0-.76-.13-1.49.41-2.15a4.65,4.65,0,0,1,3.48-.6c3,1.06,6,2.35,9.39,1.45C179.2,282.15,179.92,282.28,179.65,283.25Z"/><path class="cls-39" d="M190.37,258.69l-.78.73c-6.14-1.36-12.27-2.93-18.62-1.2a3.14,3.14,0,0,1-2.53-.48,1.6,1.6,0,0,1-.66-1,5,5,0,0,1,.73-2.81c1-1.53,2.84-1.36,4.3-1.94.69-.45.66-.89,0-1.34-5.42-.31-10.81,0-16.2-.1-6.2.11-12.4-.35-18.57.27a2,2,0,0,0-1.1,1.55,13.21,13.21,0,0,0-.06,1.42c0,.79.21,1.57.2,2.36-.06.63-.21,1.25-.28,1.88a6.28,6.28,0,0,1-.26,1.42,1.73,1.73,0,0,1-.6.75c-1.19-6.54-7.16-7.17-11.81-8.91-2-.75-4.86.76-7.33,1.25.17-3.68-1.08-7.23-.84-10.94.14-2.08.71-2.84,2.87-2.92,5.09-.2,10.13-.36,14.84,2,1.21.6,2.2-.17,3.29-.28,1.31-.14,2.73-.45,3.87.78-1.39,1.53-3.8-.49-4.72,1.74a1.27,1.27,0,0,1,0,1.7l-.1,2.64c5,1.55,10.09.3,15.11.71,1.86.15,3.84-.5,5.55.75,1.53-2.55,3.78-3.2,6.7-3.12,8.76.24,17.56-.63,26.29.83.65,2.73.8,5.55,1.91,8.2A3.57,3.57,0,0,1,190.37,258.69Z"/><path class="cls-117" d="M208.71,234.15l.06,9.21c1.16,1.81,1.33,3.58-.21,5.28-5.57-1.21-11.13-2.53-16.68-3.84-.14,0-.1-.42,0-.68.6-2.22,1.22-4.42.43-6.74-1.86-5.47-3-6.29-8.82-6.29H135.24a.69.69,0,0,1-.24-.56q0-.32.1-.32l.85.12q24.72,0,49.43,0c1.12,0,2.31.31,3.33-.47l1.67-.34c3.07-1.79,6.13-1.51,9.18,0C203.66,229,206.61,230.74,208.71,234.15Z"/><path class="cls-118" d="M191.9,244.11a13.7,13.7,0,0,0,6.55,1.21c3.89-.14,6.48,2.07,9.58,3.41a28.27,28.27,0,0,1,.09,9.28q0,1.46,0,2.92a3.74,3.74,0,0,0,.66,3l-.78.12c-5.74-2.22-12.15-2.24-17.61-5.38.57-2.53.54-4.88-1.13-7.14-1.2-1.62.11-3.41.37-5.12Z"/><path class="cls-119" d="M135.11,230.2l.13.88c-1.57,5.14-6.65,5.83-13.2,5.11a50.91,50.91,0,0,0-6.78-.35l-.14-.9c-.76-3.33,1.74-4.88,4-5.56a23.61,23.61,0,0,1,15.24.09Z"/><path class="cls-120" d="M136.06,244.62l0-1.7q18.92-.05,37.83-.08c.9,0,2.45-.5,2.43,1s-1.57.93-2.46.93Q155,244.71,136.06,244.62Z"/><path class="cls-121" d="M156.62,248.72l-18.32.21c-1.18,0-2.39,0-2.35-1.67l18.31-.18C155.43,247.07,156.66,247,156.62,248.72Z"/><path class="cls-122" d="M329.87,57.7c-1.79-.2-3,.14-2.75,2.41.27,2.92.26,5.86.4,8.79,0,.85-.28,1.91.65,2.44s2.4.21,1.57,1.8c-.53,1-1.82.64-2.8.74-1.42.15-1.67-.77-1.73-1.91-.28-5.47-.92-10.93-.58-16.43C326.42,56.13,329.25,54.22,329.87,57.7Z"/><path class="cls-123" d="M347.13,56.26c-.25,5-.61,9.94-.72,14.91-.06,2.56-1.29,3-3.41,2.6-.64-.12-1.32-.21-1.46-1s.34-1.2,1.06-1.25c1.66-.12,1.63-1.33,1.65-2.5.05-3.07,0-6.13.14-9.2.06-1.62-.43-2.47-2.19-2.05-1.49-1.69.2-1.79,1.12-2C344.59,55.54,346,55.13,347.13,56.26Z"/><path class="cls-124" d="M168.12,257.15c1.65.52,3.16,0,4.78-.36,5.44-1.12,10.72.23,16,1.42.31.07.48.8.71,1.22-2.9,2.72-2.73,6.61-3.85,10-1.8,1.35-1.23,4-3,5.38-3.93.7-7.72-.54-11.56-1-2.28-.25-4.21-.16-5.86,1.55-3.24.43-6.52,1.32-9.57-.75a4.14,4.14,0,0,1,.37-3.23c1.44-1.95,3.57-1.41,5.51-1.49,2.12-.09,4.24,0,6.35-.1.45-.11.87-.26,1-.77-.35-.51-.92-.56-1.43-.72-1.09-.37-2.39-.19-3.21-1.24q0-.34.07-.68c-.35-2.15.83-3,2.74-3.26,1.26-.16,2.54,0,3.77-.25a1.28,1.28,0,0,0,.58-.59,1.16,1.16,0,0,0-.36-.77,3.6,3.6,0,0,0-1.08-.23c-5.5-.06-11,0-16.45,0a11.18,11.18,0,0,1-3.41-.33,2.24,2.24,0,0,1-1.75-2.22c0-1.16.53-2.19,1.64-2.25C156.1,256.18,162.17,255,168.12,257.15Z"/><path class="cls-125" d="M155.87,273.93c3.17,1.86,6.64.35,9.93.87a1,1,0,0,1-.41,1.11c-5.71.92-11.44.18-17.16.39,4.55.06,9.1,0,13.65,0,1.36,0,2.81-.32,4,.62a1.64,1.64,0,0,1-.08,1.9c-2.86,1.51-5.95.61-8.93.81-2.14.14-4.29-.08-6.43.25-3.39-.34-6.78-.19-10.18-.24-1.5,0-3,.15-4.31-1l-.07-.86L136,277a2.79,2.79,0,0,1,2-.66,2.33,2.33,0,0,1-2-.7l.11-1.88C142.7,272.49,149.29,272.09,155.87,273.93Z"/><path class="cls-126" d="M172.66,263.2c-1.17,1.49-2.85.9-4.23.78a3.57,3.57,0,0,0-4.06,2.44l-.06-.06c-1.19-1-2.65-.76-4-.76-6.75,0-13.51,0-20.26,0-1.38,0-2.83.26-4-.71l0-1.71c1.17-1,2.6-.93,4-.93q14.34,0,28.68,0C170.08,262.23,171.51,262.16,172.66,263.2Z"/><path class="cls-127" d="M155.87,273.93l-19.78-.19q0-1-.06-1.91a3.61,3.61,0,0,1,2.71-1.12q7.54-.15,15.08,0a3.4,3.4,0,0,1,2.69,1.13C156.64,272.64,156.76,273.44,155.87,273.93Z"/><path class="cls-128" d="M136,264.87l26-.13c1.15,0,2.41-.13,2.36,1.63l-26,.19C137.13,266.56,135.93,266.59,136,264.87Z"/><path class="cls-129" d="M156.52,271.84H136q0-.88,0-1.77c4.1-1.93,8.46-.48,12.67-.94h2.17c4.84,0,9.67,0,14.51,0,1.49,0,3.1-.23,4.25,1.15-2.87,1.4-5.93.33-8.88.67C159.33,271.12,157.7,270.42,156.52,271.84Z"/><path class="cls-130" d="M150.61,270l-1.75,0c-2.35-1.26-4.89-.38-7.33-.65-1.82-.2-3.75.49-5.45-.67l-.13-.8c3.22-.9,6.51-.41,9.76-.39,7.45,0,14.9-.38,22.34.24.8.22,1.84-.17,2.3.91-2.62,1.39-5.44.44-8.15.7C158.34,269.78,154.41,268.71,150.61,270Z"/><path class="cls-131" d="M172.61,261.81a.76.76,0,0,1,0,.66c-2,.9-4,.38-6,.4-8.92.07-17.84,0-26.77,0-1.23,0-2.55.41-3.7-.43a.65.65,0,0,1,0-.59c2.32-2,5.13-1.2,7.7-1.11,8.39.28,16.78.22,25.17.27C170.25,261,171.57,260.8,172.61,261.81Z"/><path class="cls-132" d="M172.61,261.81l-36.48,0a1.82,1.82,0,0,1-.13-.73c3.67-2.34,7.71-.81,11.57-1.09,4,1.18,8,.34,12,.59,4.37.27,8.77-.54,13.11.47A2,2,0,0,1,172.61,261.81Z"/><path class="cls-133" d="M136.13,262.44l36.48,0a1.46,1.46,0,0,1,.05.73l-36.65,0A1.5,1.5,0,0,1,136.13,262.44Z"/><path class="cls-134" d="M168.05,267.8l-32.1.15c1.09-1.33,2.6-.76,3.92-.77,8.14-.07,16.28-.06,24.43-.07C165.55,267.35,167,266.66,168.05,267.8Z"/><path class="cls-135" d="M136.08,268.75c3.43,0,6.85-.11,10.28-.11,1.05,0,2.45-.4,2.51,1.43H136.05Q136.07,269.4,136.08,268.75Z"/><path class="cls-136" d="M147.41,260.9l-11.41.22-.08-.9.08-.87c3.27-1.71,6.69-.9,10.08-.6C147,259.17,147.63,259.78,147.41,260.9Z"/><path class="cls-137" d="M136,275.62c1.94-.17,3.91-.55,6.25.49-2.2,1.63-4.27.9-6.23.87Q136,276.3,136,275.62Z"/><path class="cls-138" d="M299.21,242.57a6.28,6.28,0,0,1,3.08-4.6c1.58,1.18,3.74,1.48,4.9,3.28a25,25,0,0,1-2.54,7.44c-2.11,2.3-4.25,2.18-5.38-.32A6.22,6.22,0,0,1,299.21,242.57Z"/><path class="cls-139" d="M304.65,248.69c-.29-2.82.76-5.25,2.2-7.57a1,1,0,0,1,1-.8.45.45,0,0,0,.41,0C308.38,243.72,308.48,247.05,304.65,248.69Z"/><path class="cls-140" d="M61.55,123.06c-2.33,2.11-2.12,7.24.4,9.54-2.45.81-2.84.69-3.23-1.42-.27-1.48-.1-3-1-4.37a4,4,0,0,0,.6-3.61c-.36-1.56,1.07-1.44,1.9-1.59S62.51,121.26,61.55,123.06Z"/><path class="cls-141" d="M71.54,122.2c-.11,2.9-.11,5.81-.36,8.7-.14,1.62-.83,3-3.43,2.06,3.29-2.33,2-5.54,2.14-8.45.09-1.44-1.09-1.48-2.06-1.73C68.8,120.86,70.17,121.54,71.54,122.2Z"/><path class="cls-142" d="M423.39,121.49c-.83,22-1.18,44.07-1.64,66.11-.13,6.38-.4,8.3-8.69,8.27-33.07-.15-66.15,0-99.22,0v-.06a.79.79,0,0,1,.28-1.13c4.61-1.44,9.35-.4,14-.69,1.65-.1,3.31,0,5-.06a3.58,3.58,0,0,0,3.74-3.14c1.7-8.64,2.66-17.33,1.77-26.14-.14-3.08,2.42-4.9,3.49-7.43.38-.9,1.39-1.92.51-2.76-1.1-1.05-1.69.44-2.41,1s-1.47,1.26-2.36.65c-1.14-.78-.56-1.83,0-2.68,1.26-2,.29-3.24-1.08-4.63-1.86-1.88-3.86-3.74-4.63-6.4-.59-2-3.07-1.71-3.91-3.37,1.39-1.9,4-2.82,4.49-5.45a12.65,12.65,0,0,1,2.15-1.55c3.49-2.51,3.9-4.18,2.06-8-.53-1.11-2.08-2.37.24-3.31,3.92-.86,7.88-.41,11.82-.39,11.09.05,22.18-.11,33.27.08,12.3-.25,24.59-.08,36.88-.09C420.65,120.23,422.2,120.3,423.39,121.49Z"/><path class="cls-143" d="M423.39,121.49l-41.34-.08c-.81-1.44-2.16-2-3.66-2.52s-1.46-1.34,0-2c5.08-.85,10.19-.3,15.28-.37,7.51-.1,15,0,22.55,0-10.79,0-21.57,0-32.36,0a18.71,18.71,0,0,1-5.32-.32A39.51,39.51,0,0,0,376,112.3l45.15,0C423.71,114.89,423.67,118.16,423.39,121.49Z"/><path class="cls-144" d="M285.41,179.72a24.25,24.25,0,0,1-.73-6c-.21-12-.22-24-.92-35.89-.31-5.21-.42-10.41-.66-15.62q.06-.31.12-.63c1.41-1.41,3.22-1.23,5-1.26,11.14-.19,22.28.14,33.41-.22,2.6.26,5.27,0,7.81.83,1.09.68.6,1.49,0,2.13-1.26,1.45-1.46,3.33-2.17,5-5.3.83-5.54,1.56-2,6.17a6.85,6.85,0,0,1,1,1.19c.37.64,1,1.34.46,2-.74.91-1.62.3-2.39-.13a6.49,6.49,0,0,1-1.47-1.22,9.19,9.19,0,0,1-2.4-3.86c-.74-2.86-2.5-3.69-5.33-3.63-6.74.16-13.49,0-20.24.06-4.19,0-4.23.38-4.59,4.64-.47,5.53,1,10.84,1.42,16.26.33,4.21,4.22,4.1,7.14,5,1.89.34,3.8,0,5.7.1,3.05,1.21,5,2.9,4.9,6.74a10.53,10.53,0,0,0,2.44,7.12c1.07,1.26,1.5,2.71,0,4.08-2.51,2.53-5.15,3.92-8.77,1.87-1.84-1-3.62.18-4.55,1.74-2.25,3.78-4.87,6-9.5,3.81C288,179.54,286.61,180.4,285.41,179.72Z"/><path class="cls-145" d="M329.94,121.53c-2.55-.36-5.23.55-7.67-.82-.29-2.43,1.7-3.36,3.14-4.54,1.15-.94,2.41-1.7,3-3.15,15.86.32,31.7-1.41,47.57-.73,1.31,1.55,3.48-.07,5,1.43-.85,1.41-2.79.23-3.57,1.48a5.9,5.9,0,0,1,0,2.46,2.45,2.45,0,0,0,2.44.68c2.8-.4,2.87,1,2.16,3.06l-46.06.16A10.6,10.6,0,0,1,329.94,121.53Z"/><path class="cls-146" d="M328.41,113c.71,1.3.84,2.41-.91,3-2.45.79-3.84,2.76-5.23,4.72-1.14,1.22-2.63.7-4,.71-11.7.07-23.39.09-35.09.12-.2-7.82.49-8.53,8.24-8.53Z"/><path class="cls-147" d="M84.63,213.39c0-2.81-.1-5.62-.07-8.43,0-3.76,1.55-5.29,5.36-5.3,12.26,0,24.52,0,36.77,0,2.86,5.4,1.74,7.54-4.13,7.94a112,112,0,0,1-14.13,0c-2.47-.14-4.88-.12-6.75,1.87-2.52.5-3.33,3.66-6,3.89C92,212.35,88.3,213.92,84.63,213.39Z"/><path class="cls-148" d="M100.73,209.62c.88-2.47,2.58-3.24,5.21-3.13,5.61.22,11.22.39,16.85.15,3.43-.14,5.64-.49,4-4.67a7,7,0,0,1-.08-2.27c3.13-.38,6,0,8.46,2.28-.32,6.12.71,12.3-.76,18.37-2.37,1.08-4.84,0-7.24.36-2.78-2.18-4.45-5.34-6.82-7.89-1-1.08-1.76-2.56-3.65-2a3.53,3.53,0,0,1-2.44-.47,2.85,2.85,0,0,0-3.56.41c-3.89,4.18-7.31,4.55-10.48,1.15A2,2,0,0,1,100.73,209.62Z"/><path class="cls-149" d="M84.63,213.39c3.76-1.92,7.66-1.71,11.59-.69-.16.56-.16,11.13,0,12.05-3.5,1.68-7.16,1.57-10.86,1-.29-1.53.54-3.26-.8-4.61Z"/><path class="cls-150" d="M136.66,203.38l-1.41-1.57c-.43-2-2.06-2.55-3.74-3,1-1.21,2-1.63,3.55-.77C137.4,199.34,136.52,201.48,136.66,203.38Z"/><path class="cls-151" d="M336.76,277.1c.21-2.6-1.19-5.07-.62-7.7,2.77-1.73,5.59-1.45,8.44-.25,1.11,3.14,3.44,3.81,6.58,3.76,10.68-.16,21.37,0,32.05-.08,4.17,0,4.47-.41,4.58-4.64.06-2.28-.23-4.58.39-6.83a1.78,1.78,0,0,1,1.37-1.29c1.33,1,1.27,2.43,1.21,3.78-.12,2.77,1.13,3.9,3.82,3.81a4.12,4.12,0,0,1,4.29,2.48l-.06,9.32c-1.28,2.21-5.5,3.1-8.48,1.76-.91-.41-1.58-1.27-2.65-1.38-8.4-.12-16.79,0-25.18,0-1.86,0-3.89-.25-5.16,1.67a1.41,1.41,0,0,1-1.1.46c-3.38-3-7.9-3.22-11.83-.55a13,13,0,0,1-7.54.29Z"/><path class="cls-152" d="M336.87,281.68c2.42-1.34,5-.54,7.57-.75,3.84-.33,7.72-1.2,11.43.68l.88.08c1.49-1.3,3.32-1.15,5.1-1.16,6.89,0,13.79,0,20.68,0,2.29,0,4.64,0,6.42-1.85a7.5,7.5,0,0,0,9.86.8l-.67,5.27c-2.35,2.74-5.36,3.21-8.85,3.17-15.13-.15-30.26,0-45.38-.08C339.3,287.81,337.57,286.25,336.87,281.68Z"/><path class="cls-153" d="M85.35,225.71c3.4-1.68,7.4.31,10.74-1.74,1.8-.89,2.64,1.26,4.12,1.29,1.81-3.25,2.74-1.44,3.63.6,1,1.22,1.53.06,2-.54.79-1,1.32-2.19,2.5-2.84,5.07-1.55,7.18-.83,9.5,3.17,2.54-.37,3.82-2.6,5.76-3.85,1-.64,1.59-2.11,3.17-1.44,2.53-1.48,5.07-.66,7.61,0q0,4.57-.06,9.13c-3.8,0-7.6.1-11.41.08a7.61,7.61,0,0,0-7.8,5.39c-2.09,1.55-4.18-.08-6.28,0-5.21.15-10.43.3-15.64.22s-8.42,0-7.9-7.52C85.36,227,85.34,226.34,85.35,225.71Z"/><path class="cls-154" d="M336,255.63a18.09,18.09,0,0,1,.06-9.9,13.62,13.62,0,0,1,9.46-3.18c12.08.17,24.16.05,36.24.07,4.94,0,9.9-.29,14.78.78,3.23,2.94,3.45,6.71,3,10.69-2.45,1.16-5,.14-7.46.24-3.7.16-2.77-3.72-4.53-5.26-1.52-.92-3.21-.69-4.84-.69q-15,0-30.08,0c-6.26,0-6.26,0-7.55,6C342.37,256.61,339.17,255.84,336,255.63Z"/><path class="cls-155" d="M389,248c.27,5,3.31,6.07,7.67,5.44.92-.13,1.95.44,2.92.68-.92,5.32-.54,10.7-.71,16a6.09,6.09,0,0,0-5-1.46c-3.42.57-4.67-.87-4.21-4.23a29.87,29.87,0,0,0,0-4.21C386.71,256.3,387.3,252.16,389,248Z"/><path class="cls-156" d="M336,255.63c2.69-1.49,5.57-.91,8.41-.79,1.81,2.07,1,4.58,1.14,6.92-.13,2.59.76,5.33-1.13,7.65h-8.33Q336.09,262.51,336,255.63Z"/><path class="cls-45" d="M235.6,280.15,241,292.43l2.29,6.9c-3.26,1-5.41.32-6.73-3.28-1.24-3.36-2.06-7-4.73-9.75Z"/><path class="cls-157" d="M165.67,275.68l.13-.88c-.79-1.83.29-2.44,1.76-2.27,5.07.59,10.23.68,15.15,2.27-.82,2.89-1.16,5.95-3.07,8.44-3.5.54-7,.83-10-1.56a.64.64,0,0,1-.33-.63c.08-.37.22-.72.29-1.09a1.9,1.9,0,0,0-.13-.73,2.6,2.6,0,0,0-.58-.59,8.05,8.05,0,0,1-3-2.48Z"/><path class="cls-158" d="M218,176c-3.7,0-7.41-.22-11.11-.08-2.53.1-3.59-.49-3.59-3.33,0-8.29-.11-8.31,8.22-8.22,6.76.07,13.53-.15,20.26.8.72,3.2-2.43,1.93-3.5,3-1.47,2.91,1.06,2,2.25,2.35.93.27,2.27.12,2.24,1.53s-1.23,1.39-1.72,1.43c.62-.1,2.37.54,2.45-1.3.06-1.42-1.57-1.38-2.63-1.66-.83-.22-2.12-.08-2-1.19.09-1.27,1.47-1.2,2.45-1.23a30.72,30.72,0,0,0,3.8-.26,1.35,1.35,0,0,1,1,.6c.86,1.71.48,3.6.82,5.39,1.14,4.12-2.24,1.69-3.47,2.4C228.25,176.06,223.1,176.63,218,176Z"/><path class="cls-159" d="M233.92,176c.22-.9,3.85,1.72,1.7-1.64,1.68-2.05,2.21-4.09-.06-6.11H235c-2.61-.32-5.4.86-7.82-1,1.16-1.51,4.06.77,4.6-2.1l25.43,1.6c2.16.14,3.23,1.13,2.9,3.45s-.5,4.77-.73,7.16a2.9,2.9,0,0,1-3.84.08l-4.48-.09c-3-1.11-6.26.49-9.3-.65l-7.56-.12C233.85,176.48,233.77,176.27,233.92,176Z"/><path class="cls-160" d="M204.93,142.13a1.71,1.71,0,0,1,1.55.76c-2,.36-.74,1.5-.42,2.21,2.19,4.94,6.48,8,10.29,11.55,1.18,1.08,2.49,2,4.21,3.37-8.09-1.59-19.74-9.6-18.71-18.54l0-.24C203.22,140.47,204.07,141.31,204.93,142.13Z"/><path class="cls-161" d="M221,183.54h8.35c-9.78,1.74-19.8,2-29,6.17.48-2.33,3.41-3.44,3.05-6.18Z"/><path class="cls-162" d="M255.14,145.28c1.23,10.46.16,14.34-9.87,18.65C250.92,158.94,253.56,152.43,255.14,145.28Z"/><path class="cls-163" d="M225.69,149.84c1.59-1.6,3.57-.75,5.37-.75a2,2,0,0,1,2,2.82c-.58,1.74-1.82.61-2.79.26-.83-.3-1.63-.64-2.45-1Z"/><path class="cls-102" d="M233.92,176a5,5,0,0,1,.26.63c-4.91.35-9.85-.38-14.75.38-.75.12-1.12-.44-1.45-1Z"/><path class="cls-102" d="M241.75,176.71c3.11.11,6.27-.62,9.3.65-2.38.31-4.83-.38-7.19.5C242.81,178.25,242.22,177.54,241.75,176.71Z"/><path class="cls-102" d="M255.53,177.45l3.84-.08c-.55,2-1.9,2.62-3.83,2.34h0Z"/><path class="cls-164" d="M172.05,172q0,2.27,0,4.54c0,7.36-1.11,14.44-5,20.91.56-11.09,1.92-22.11.74-33.18,3.94.37,3,3.95,4.11,6.22Z"/><path class="cls-165" d="M247.81,76.89c0,5.21-1.47,10.16-2.8,15.13-.62,2.32-1.39,1.46-2.32.29-.75-4.21-1.46-4.54-5.37-2.54.5.49-2.14.45-.19,1.17.81.3,1.64.53,2.47.79A7.17,7.17,0,0,1,242.45,93c-2.72,2.12-5.28,0-7.77-.52-3-.6-5.54-1.32-6.11,2.88A1.55,1.55,0,0,1,227,96.75c-1.67-.06-1.75-1.53-2.14-2.69,0-.1-.1-.26-.17-.28-.56-.09-.49.4-.61.71-2.69-1-1.77-3.34-1.5-5.09a25,25,0,0,1,4.56-11.17c2.51-3.08,4.81-1.63,7.08.33a15.56,15.56,0,0,0,11.63-.77C246.49,77.47,246.93,76.72,247.81,76.89Z"/><path class="cls-166" d="M234,79.12c-2-1.18-3.84-3-6.17-.67-.83-2.45-2.92-4.69-1.25-7.56.78-1.85,2.12-2.52,4.15-2.42,3.64.17,7.29.1,10.94.13a2.17,2.17,0,0,0,2.3.33c4.42.08,8.59.71,12,4.08,1,1,1.74,1.73,1.66,3.1a15.74,15.74,0,0,0-20.12-.42c-.65.5-2.06.84-1.08,2.22C236.14,79.29,235.38,79.78,234,79.12Z"/><path class="cls-167" d="M226.62,70.9c-.86,2.73,1.21,5,1.25,7.56-3.67,4.78-5.74,9.94-3.8,16,.57,4.8,4,7.68,7.2,10.69-3.36-.36-4.49-3.27-6.32-5.42-.69-.81-.75-2.52-2.17-2.29-1.23.2-.82,1.66-1.13,2.58a2,2,0,0,1-1.65,1.39,15.13,15.13,0,0,0,0-13.63c1.21.29,2.32.88,2.66-1.25a15.87,15.87,0,0,1,2.95-6.9c1-1.39.8-2.79.4-4.31S224.9,72.17,226.62,70.9Z"/><path class="cls-168" d="M234,79.12a4,4,0,0,0,2.4-1.21c3-.72,6.06-1.46,9.1-2.14,1-.22,2.36-1,2.26,1.12-1.26,2.39-3.19,3.29-5.9,3.08a20,20,0,0,0-7.5.77c-.5.15-1.39.36-1.38-.59C233,79.8,233.68,79.46,234,79.12Z"/><path class="cls-169" d="M237.11,89.35c1.31-2.64,3.79-2,5.53-1.28,2.25.94-.24,2.78,0,4.23a1.09,1.09,0,0,0-.23.68,3.13,3.13,0,0,1-3.16-.55A4.81,4.81,0,0,0,237.11,89.35Z"/><path class="cls-170" d="M251.67,103.63l-2.32.25c-.72-.22-1.59,0-2.13-.74l.34-.16a2,2,0,0,0,.31-.18c-.47-1.09-2.22-.07-2.52-1.75,2.94-1.15,5.73,1,8.71.32C253.88,103,252.23,102.71,251.67,103.63Z"/><path class="cls-171" d="M240.41,134.52c1,4.76-1.87,7.72-4.84,10.66-6.49.94-10.87-2.3-14-7.47-1.06-1.75-3.57-2.82-3-5.49a37.47,37.47,0,0,0,7.17,6.72C231.43,142.59,237.66,140.74,240.41,134.52Z"/><path class="cls-172" d="M204.93,142.13l-3-.88a19.2,19.2,0,0,1,1.24-8.83C204.71,135.79,204,139.14,204.93,142.13Z"/><path class="cls-173" d="M285.41,179.72c2.19-1,4.43-1.37,6.55,0,1.79,1.19,2.7.46,3.66-1.1a22.51,22.51,0,0,1,3.25-4.21c1.06-1,2.64-2.37,4-1.22,3.43,2.8,6,.94,8.59-1.13.59,2.57-.07,5.22.79,7.82,1.3,4,1.64,4.28,5.51,2.91.62-.22,1.21-.4,1.74.17a6,6,0,0,1-1.8,7.49,28,28,0,0,0-3.94,4.56q0,.36,0,.72c-7.35,0-14.7.06-22,0-4.75,0-6.18-1.6-6.38-6.42-.08-1.94.8-4.05-.78-5.81a1.28,1.28,0,0,1-.05-1.65l.07-2.18Q285,179.71,285.41,179.72Z"/><path class="cls-174" d="M284.58,181.93l.05,1.65-3.05,5.33c-3.45,3.09-3.49,8-6.15,11.52.61-6.14,3.46-11.43,6.44-16.65A3.28,3.28,0,0,1,284.58,181.93Z"/><path class="cls-103" d="M250.85,226.57q0,1.48.06,3c-17.7,9.82-36.43,6.22-49.92-7.31a17.81,17.81,0,0,1-5.25-12.62c-.09-2.8,0-5.61,0-8.41,5.72,7.19,11.79,14,19.88,18.67A58,58,0,0,0,229,225c-1.55-2.39-4.56-1.72-5.74-3.87,7.62.24,15.25.46,22.87.72,1.78.06,2.15-1.47,3.12-2.4,1.19-1.15,1.59-2.94,3.17-3.72a6.26,6.26,0,0,1-1.52,5.34c-.8,2.78-3.46,3.58-5.46,5-3.42,2.49-7.46,3.75-12.07,5.67,5.67-.77,10.44-1.65,14.65-4.46C248.86,226.8,249.72,226.09,250.85,226.57Z"/><path class="cls-175" d="M199.57,229.55l-9.18,0a9.58,9.58,0,0,1,.53-1.77c2.06-3.94,3.1-4.11,6.19-1C198,227.63,198.75,228.61,199.57,229.55Z"/><path class="cls-176" d="M247.07,107c1.65,1,3.46.61,5.19.46,3.66-.32,5.19,1.19,4.45,4.74-.31,1.48-.85,2.9-1.28,4.35-2,2.48-3.17,1.64-4.12-1-1.46-4-3.31-4.48-6.47-1.4-2.64,2.58-4.8,1.45-7-.27-1.74-1.35-2.86-3.12-1.39-5.25,1.67-2.43,3.8-4.19,7-2.76A8,8,0,0,0,247.07,107Z"/><path class="cls-177" d="M153.76,92.18c-.85-1.13-2.52-2.09-.7-3.74s2.47.27,3.38,1.06c1.31,1.14,2.35,1.65,3.9.26,1-.89,2-3.29,3.88-1s-1,2.5-1.76,3.66l-.38.64c-.59,1.59,1,1.73,1.68,2.41s1.22,1.26.47,2.24a1.38,1.38,0,0,1-2.28.2c-2.26-2.17-4.43-2.5-6.75-.08a1.52,1.52,0,0,1-2.58-.25c-.76-1.08.22-1.55.74-2.22C154.09,94.41,157.26,93.7,153.76,92.18Z"/><path class="cls-84" d="M241,65.46c2.6-.84,4.56-2.14,3.81-5.36,2.44,1.43,3.26,3.94,5.09,7C246.39,65.83,243.76,65.09,241,65.46Z"/><path class="cls-178" d="M211.87,93c0-.25,0-.51.05-.76.27-1.68-1.13-4,.65-4.93s3.42,1,4.74,2.33,2.89,2.92.8,5.06c-.61.63,0,2.09-1.48,2.53-1.52-1.4-1.18-3.17-.64-4.82.46-1.42.55-2.74-1.11-3-2.17-.32-1.35,1.61-1.53,2.68a14.56,14.56,0,0,0,0,2.31c-1.08.07-.68-1.29-1.47-1.44Z"/><path class="cls-179" d="M208.11,258q0-4.64-.09-9.28c1-1.69.71-3.55.73-5.36l8,4.4c.65.36,1.64.64,1.39,1.53s-1.39,1-2.28.9a21.56,21.56,0,0,1-2.22-.48c-4.34-.87-5.59.36-4.93,4.72.18,1.18.55,1.83,1.84,1.94,11.16.91,22.31,1.39,33.48.18a17.89,17.89,0,0,1,4.54.2A101.26,101.26,0,0,1,208.11,258Z"/><path class="cls-180" d="M289.35,196.66l10.63,0a10.5,10.5,0,0,1-2.43,5.06c-4,4.81-5.91,4.5-8.28-1.28Z"/><path class="cls-181" d="M307.83,240.33l-1,.8c-1.76-.71-3.94-.81-4.56-3.16C305,236.62,307.35,236.34,307.83,240.33Z"/><path class="cls-182" d="M250.85,226.57A26.89,26.89,0,0,1,231.44,232c6.9-3,13.76-6,19.49-11C252.82,222.95,250.53,224.74,250.85,226.57Z"/><path class="cls-183" d="M169.65,281q0,.36,0,.72l-3.82,0c-1.71,1.7-4.17.45-6.17,1.51,1.35.84,2.86.26,4.11.84.85.39,2.22.71.76,2-6.36,1.18-12.77.39-19.14.48a11.83,11.83,0,0,0-3.79-.21c-1.88.12-3.8.61-5.53-.63l-.07-1.82c5-1.54,10.08-.16,14.27-.69-4.2-.45-9.3.8-14.28-.65l0-1.82c3.82-1.78,7.9-.36,11.81-1a9.51,9.51,0,0,1,1.26-.18c.43.06.85.1,1.28.14s.88,0,1.32.07c4.57.13,9.13,0,13.69.07C166.88,279.91,168.48,279.64,169.65,281Z"/><path class="cls-157" d="M142,285.71c.87-1.46,1.8-.26,2.71-.05a2.1,2.1,0,0,0,1.56,1c5.74.21,11.48.2,17.22,0a1.76,1.76,0,0,0,1.52-1c-1.29-1.64-3.09-.61-4.63-.87-1.16-.2-2.88.39-2.8-1.62s1.78-1.4,2.94-1.45c1.78-.08,3.57,0,5.36,0-.13,2.5.92,3.59,3.9,2.6-2.47,2.25-4.11,4.52-7.59,4.37-5.55-.23-11.13,0-16.68.2-1.42.05-2.18-1.3-3.51-1.1A1.54,1.54,0,0,1,142,285.71Z"/><path class="cls-184" d="M136,282.57h20.31l0,1.34H136Q136,283.24,136,282.57Z"/><path class="cls-185" d="M142,285.71q0,1,0,2.07c-1.38,0-2.76,0-4.13,0s-2-.67-1.74-2.1Z"/><path class="cls-186" d="M150.48,280.18l-1.41,0c-4.31-.51-8.71.72-13-.76l-.11-.75c4.8.11,9.63-.76,14.38.53l.34.22A.75.75,0,0,1,150.48,280.18Z"/><path class="cls-187" d="M136.1,279.47c4.32.29,8.74-1.12,13,.76h0c-4.3.38-8.59.68-12.87-.18A.68.68,0,0,1,136.1,279.47Z"/><path class="cls-186" d="M136.14,280.06l12.87.17c-4.28,1.36-8.66.4-13,.52A1.54,1.54,0,0,1,136.14,280.06Z"/><path class="cls-188" d="M136.88,256.27a2,2,0,0,1-.9-2.06c1.06-1.16,2.47-1.19,3.87-1.19,8.37,0,16.74-.09,25.11,0,1.38,0,2.83-.1,3.89,1.09.16.87.17,1.69-.75,2.2-.89.74-2,.44-2.95.43-7.89-.1-15.77.11-23.64.68C139.91,257.55,138.14,257.77,136.88,256.27Z"/><path class="cls-8" d="M168.85,254.12l-32.87.09q0-.9,0-1.79c4-2,8.28-.51,12.4-1,2.45-.29,5.08.87,7.33-.93q.42-.48.85-1c5,0,10-.06,15,0,1.16,0,2.58-.53,3.31,1-4,1.72-8.3.37-12.08.88,2,.14,4.44,0,6.83.08,1.37.07,2.85-.11,3.83,1.21Z"/><path class="cls-189" d="M136.88,256.27l31.22,0,0,.83c-5.36,0-10.72,0-16.08,0-1.16,0-2.87-.51-2.92,1.47s1.66,1.55,2.83,1.56c6,0,12,0,18,0,1,0,2.08-.22,2.76.85l-25.29-.18-.75-1.25c-.85-1.73-2.43-.75-3.67-.94-2.32-.36-4.79.63-7-.73A1.62,1.62,0,0,1,136.88,256.27Z"/><path class="cls-190" d="M156.53,250.47c.32,1.79-.63,2.15-2.19,2.13-6.12-.1-12.24-.12-18.36-.17q0-1,0-1.94c2.64-1.28,5.46-.59,8.16-.53C148.28,250.05,152.46,249.13,156.53,250.47Z"/><path class="cls-191" d="M173.5,252.7c-4,0-7.91,0-11.86-.16-1,0-2.7.68-2.63-1.14.05-1.36,1.57-1,2.51-1,4.47,0,8.93.06,13.4.09C175.18,251.73,174.88,252.56,173.5,252.7Z"/><path class="cls-192" d="M136,258c3.36-.06,6.72-.19,10.07-.17,1.62,0,2.7.47.61,1.84l-10.67-.3Q136,258.67,136,258Z"/><path class="cls-193" d="M156.53,250.47l-20.53,0c.8-1.5,2.23-.94,3.41-1,5.72,0,11.44,0,17.16,0Z"/><path class="cls-194" d="M150.61,270c.2-2.09,1.84-1.37,2.93-1.38,5.6,0,11.2,0,16.8.05a1.33,1.33,0,0,1-.69,1.57Z"/><path class="cls-195" d="M165.7,276.9H144.61l0-1.22h21.09l0-.09C166.31,276,166.3,276.47,165.7,276.9Z"/><path class="cls-186" d="M170.42,278.72a2.54,2.54,0,0,1-.11.73,58.51,58.51,0,0,1-19.7.06l-.24-.26c5.11-1.43,10.35-.13,15.5-.73C167.43,277.59,168.92,278.15,170.42,278.72Z"/><path class="cls-124" d="M170.42,278.72l-4.55-.2-.17-1.62q0-.65,0-1.3Z"/><path class="cls-196" d="M319.15,182.78c-4.74,3.7-6.12,3.14-7.73-2.79-.73-2.7-1.25-5.28.1-7.9a1.54,1.54,0,0,0,.08-2.58c-3-2.85-3.09-6.46-3.14-10.23,0-2.26-2.64-2.57-3.86-4a30.63,30.63,0,0,0,3.63-8.53c2.09-.3,1.7,1.41,1.85,2.47.28,1.88.3,4.12,2.28,4.8,1.8.62,2.59-1.57,3.81-2.55a4.84,4.84,0,0,1,1.28-.77,8.61,8.61,0,0,1,5.23.27c1.3.47,2.47.52,3.47-.72-1.92.11-3.59-.3-2.35-2.61,1.55-2.88,2.59-6,4.65-8.64,4.51-.44,4.24,4.1,6.36,6.14.54.52.81,1.35,1.38,1.8,3,2.35,5.45,4.76,1.23,8.47,2.29.39,2.32-1.19,3-1.92s1.61-1.75,2.86-.6c.92.85,1.46,1.78.68,3l-4.89,7.71a23.39,23.39,0,0,1-11.43,11.63c-3.13,1.56-5.61,3.19-7.24,6.19A3,3,0,0,1,319.15,182.78Z"/><path class="cls-197" d="M352.56,183.5c6.31-5.35,13.84-2.3,20.81-3,2.86-.28,5.76,0,8.64-.85H352.68v-1h60.66c-3.82,1.76-6.92.43-10.22,1.39,4.33.94,8.36-.32,12.17,1.16-2.44,1.19-5.06.57-7.58.75-1,.07-2.05,0-3.06.12a1.82,1.82,0,0,0-1.54,1.94c.06,1.27,1.28,1,2.11,1,2.68,0,5.38.19,8,0,2.45-.2,2.13,1.41,2.37,2.85.28,1.76,0,3.09-2.09,3.3a18.89,18.89,0,0,1-1.92,0q-27.6,0-55.2,0a12.73,12.73,0,0,1-3-.29,1.71,1.71,0,0,1-1.19-1.78,1.46,1.46,0,0,1,1.15-1.7c.92-.25,2.43.53,2.3-1.6s-1.81-1.21-2.76-1.72C352.74,184,352.68,183.71,352.56,183.5Z"/><path class="cls-198" d="M319.15,182.78c1.48-3.78,3.23-6.63,7.82-8.14,5.24-1.72,8.42-7,12.15-11,2.48,5.53.42,11.23.5,16.84.06,3.72-1.21,7.45-1.83,11.18-.43,2.57-1.78,3.54-4.48,3.46-6.49-.18-13-.06-19.5-.06-.07-1.55-.07-3,1.63-3.9C318.8,189.34,319.75,186.38,319.15,182.78Z"/><path class="cls-199" d="M361.65,129.88c2.16,0,4.32.06,6.48,0s3.62.94,3.12,3.15c-.74,3.25-.38,6.52-.69,9.76-.22,2.31-1.32,3.33-3.73,3.24-3.68-.14-7.37-.13-11.05,0-2.57.08-3.75-.85-3.65-3.53.13-3.17.13-6.36,0-9.53-.1-2.3.7-3.26,3.05-3.1C357.32,130,359.49,129.88,361.65,129.88Z"/><path class="cls-200" d="M406.66,129.88c9.16,0,9,0,9.2,9.21.07,3.67-.83,5.62-4.87,5.89a81.4,81.4,0,0,1-9.53.14c-3-.15-4.93-1.65-4.85-5.12C396.86,127.91,394.92,130.12,406.66,129.88Z"/><path class="cls-201" d="M383.68,142.91c-9.8,0-9.76,0-9.32-9.76.09-2,.42-2.83,2.86-2.67a59,59,0,0,0,12.59-.2c2.28-.34,3.87.37,3.79,3.28C393.33,143.57,395.2,142.93,383.68,142.91Z"/><path class="cls-202" d="M391.67,164.38h-21c-1.54,0-3.1.22-3.16-2.17-.07-2.6,1.58-2.43,3.3-2.43h41.69c1.67,0,3.39-.26,3.35,2.37s-1.92,2.21-3.49,2.21C405.44,164.4,398.56,164.38,391.67,164.38Z"/><path class="cls-203" d="M328.46,139c-.11,2.82-2.08,4.89-2.93,7.39-.36,1.05-2.51,2-.94,3.13,1.24.93,2-1.11,3.2-1.5-1.35,4.66-1.59,4.74-6,3.59a21.49,21.49,0,0,0-4.17-.28c-.25-.29-.55-.67-.43-1,1.8-5,3.28-10.07,6.56-14.35,1,.1,1.3,1.55,2.67,1.14l-1.94-2.65c-.08-2.15,1.19-3.32,3-4.09a29.11,29.11,0,0,1,5.4,3.35C333.21,137,331.14,138.27,328.46,139Z"/><path class="cls-204" d="M332.9,133.74c-2.33-.08-4-1.37-5.45-3a1.84,1.84,0,0,1-.89-2.5c.08-2.76.79-5.2,3.38-6.69a7.52,7.52,0,0,1,6,0C341.23,126.56,340,131.46,332.9,133.74Z"/><path class="cls-197" d="M415.27,174.78H352.69V174h62.59Z"/><path class="cls-197" d="M415.27,177.08H352.69v-.78h62.58Z"/><path class="cls-197" d="M415.27,167.88H355.76v-.77h59.51Z"/><path class="cls-197" d="M415.27,172.48H355.76v-.78h59.51Z"/><path class="cls-197" d="M370.79,170.23H352.66v-.78h18.14Z"/><path class="cls-205" d="M377.45,117.67a1.42,1.42,0,0,1,0-2.46l37.52.07a24,24,0,0,1,2.68,0c1,.12,2.68-.51,2.52,1.34-.12,1.43-1.6,1-2.51,1-10,0-19.91,0-29.87,0C384.34,117.61,380.9,117.65,377.45,117.67Z"/><path class="cls-206" d="M323.78,136l-6.13,15.35a8.18,8.18,0,0,0-1.52,1.58c-.87,1.59-2.39,2.89-3.88,2.36a4.84,4.84,0,0,1-3-4.29c-.11-1.41.67-3.05-.85-4.19-1.23.13-1.7-.93-2.44-1.56-3-2.51-6-2.51-8.44,0s-2.33,5.15.19,8.07c.57.66,1.39,1.12,1.57,2.08-6.66.52-8.37-2.07-8.83-8.56-.29-4-1.07-8.1-1.09-12.21,0-7.06,0-7.06,7.05-7.06s14,0,21,0c2,0,3.33.18,3.48,2.75C321,132.44,322.56,134.2,323.78,136Z"/><path class="cls-207" d="M299.23,155.4c-3.07-1.39-5-3.67-4.51-7.12a6.89,6.89,0,0,1,5.48-5.73c3.84-1,6.22,1.3,8.15,4.25a7.85,7.85,0,0,1-3.74,8.49C302.82,155.61,301,156.15,299.23,155.4Z"/><path class="cls-208" d="M326.56,128.22l.89,2.5-2.93,3.76a4.44,4.44,0,0,1-2.19-3.31c-.24-1.09-1.68-2.61-.1-3.27C323.42,127.41,325.27,126.36,326.56,128.22Z"/><path class="cls-209" d="M292.9,114.88c-2,.72,1.14,3.27-1.78,3.83-4.08.79-1.91-2.56-3.1-3.75C289.65,115.4,291.13,115.95,292.9,114.88Z"/><path class="cls-210" d="M100.54,227.22c-1.61-.91-2.58-2.7-4.45-3.25-4.76-5.28-4.76-5.28.12-11.27,1.81-.58,2.09-3.39,4.5-3.08q0,1.17,0,2.33a1.83,1.83,0,0,1-.42,1.78c-2.66,2.75-3.9,5.23.06,8.18C101.85,223,101.27,225.4,100.54,227.22Z"/><path class="cls-211" d="M117.51,227.26c-2-4.75-3.88-5.52-9.33-3.9-.9-2.26.71-3.88,1.58-5.61,1.42-2.8,2.44-5.87,4.8-8.13l2.1.77c1.76,1.82,3.25,3.89,5.12,5.63s2.15,3.79-.27,5.35C119.3,222.8,118.79,225.26,117.51,227.26Z"/><path class="cls-212" d="M100.54,227.22c.94-3.22-.53-5.48-3.07-7.11-1.93-1.23-2-2.18-.31-3.73a40.34,40.34,0,0,0,3.61-4.43c3.61,2.33,5.84,1.79,9.79-2.34a2.11,2.11,0,0,1,.18,2.49c-1.76,4.52-4,8.84-6,13.26a1.69,1.69,0,0,1-1.76,1.19,3.66,3.66,0,0,0-1.12-2.44C100.88,224.91,102.1,226.72,100.54,227.22Z"/><path class="cls-213" d="M117.51,227.26c-.59-3.08,1.1-5.1,3.41-6.56s1.72-2.44.2-4c-1.75-1.86-4.39-3.18-4.46-6.26.27-1.41,1.1-1.83,2-.68,2.77,3.51,6.54,6.26,8.12,10.66C123.56,222.48,121.31,225.91,117.51,227.26Z"/><path class="cls-213" d="M103,226.56a134.4,134.4,0,0,0,7.55-16.94,2.9,2.9,0,0,1,4,0c-1.43,4.9-4.78,8.91-6.39,13.73a29.64,29.64,0,0,1-2.25,3.51C105,228,103.73,229,103,226.56Z"/><path class="cls-214" d="M344.52,261.77q0-3.47-.06-6.94c.08-7.63.08-7.63,7.66-7.63,11,0,21.92,0,32.88,0,1.35,0,2.83-.48,4,.73.16,4.1-.54,8.24.72,12.27L389,261c-4.7,2.15-9.58,1-14.4.8A46.13,46.13,0,0,0,364.22,256c-1.08,1.93.67,4.72-1.85,6.11C356.42,261.84,350.45,262.71,344.52,261.77Z"/><path class="cls-215" d="M373.57,261,389,261c0,3.31-.09,6.61,0,9.91.09,2.26-.63,3.15-3,3.14-12.84-.09-25.68-.14-38.52,0-4,0-2.73-2.65-3-4.67q0-3.82.06-7.64a45.16,45.16,0,0,1,18.28,0,2,2,0,0,1,.89,1.61c.19,2,1.07,1.83,2.51,1C368.54,263,370.4,260.54,373.57,261Z"/><path class="cls-216" d="M388.94,278.64c0,3.36-2.51,3-4.62,3-9.19,0-18.39,0-27.58,0-.4-2.66,1-3.13,3.33-3.1C369.7,278.68,379.32,278.64,388.94,278.64Z"/><path class="cls-217" d="M355.87,281.61c-3.8-.36-7.7.82-11.43-.68.08-1.18.16-2.31,1.81-2.28,2.65,0,5.3,0,7.95,0C356.42,278.69,356.07,280.2,355.87,281.61Z"/><path class="cls-218" d="M150.61,279.51l19.7-.06a.76.76,0,0,1,0,.63,99.2,99.2,0,0,1-19.81.09h0Q150.56,279.85,150.61,279.51Z"/><path class="cls-186" d="M150.48,280.18l19.81-.09-.64.89c-5.2,0-10.41,0-15.61-.13C152.84,280.82,151.48,281.37,150.48,280.18Z"/><path class="cls-219" d="M219.78,169.23c1.17.46,2.59.69,2.63,1.08.21,1.82-2,.29-2.43,1.55.35.09.7.16,1,.27,1.5.48,3.89-1,4.39,1.37.24,1.17-1.7,1-2.48.75-2-.64-5.64,2-5.67-2.62,0-1.57-.73-3.8,1-4.51,2.06-.85,4.5-.44,6.75,0,.72.14.81.89.63,1.56s-.72,1.15-1.4.83A6,6,0,0,0,219.78,169.23Z"/><path class="cls-220" d="M227.17,167.25c2.58.52,5.39-.78,7.82,1-.37.87-.77,1.61-2,1.08a4.59,4.59,0,0,0-4.3.19l4.76,1c1.07.23,1.35,1,1.35,2s-.41,1.83-1.45,1.88a22,22,0,0,1-7.6-.53c2.37-2,4.53-.66,6.47-1.42-.84-1.6-2.39-1-3.57-1.25C226.22,170.6,225.53,169.41,227.17,167.25Z"/><path class="cls-221" d="M212.22,166.73c2.84-.31,4.53.51,4.4,3.92-.12,3-1.79,3.22-4,3.14-2.7-.1-5,0-4.65-4.14C208.2,166.16,210,166.55,212.22,166.73Z"/><path class="cls-222" d="M235.56,168.21c.42-.23,1-.77,1.24-.65,2.26,1.17.81,3.26,1.07,4.93s-.54,2.38-2.24,1.82Z"/><path class="cls-223" d="M254.49,172.41c1.25-1.19-.5-4.26,1.57-4s.59,3,.88,4.62c.15.82.15,1.92-1.1,2.06s-2.34.35-3.06-.91-1.42-2.59-2.13-3.91c-.28.19-.41.23-.44.31-.63,1.35.55,3.11-.89,4.24a.76.76,0,0,1-1.19-.49c-.08-1.89-.57-4.05.17-5.6.87-1.82,2.81-1.13,4,.21C253.26,169.95,253.27,171.57,254.49,172.41Z"/><path class="cls-224" d="M246.88,171.52c.11,1.39,1.3,3.49-1.54,3.39-2.47-.08-6,1.39-6.65-2.94-.33-2.34.19-4.41,3.26-4.4a7,7,0,0,1,1.52,0c1.23.28,3.49-.75,3.48,1.11,0,2.33-2.16.52-3.31.82-.91.23-2.15-.39-2.62.89a2.27,2.27,0,0,0,.08,1.81c.79,1.1,2.06.59,3.16.62S245.33,171,246.88,171.52Z"/><path class="cls-225" d="M237.11,89.35c3.11-.66,3.3.74,2.18,3.08a5.94,5.94,0,0,1-4.1-1.88Z"/><path class="cls-226" d="M165,285.65c.84,1.15.62,2-.85,2-6.08.06-12.16,0-18.24,0-1.55,0-1.58-.89-1.21-2Z"/><path class="cls-227" d="M373.57,261l-10.4,6.21-.37-5.4c0-2.29,0-4.58,0-7.88C366.69,256.76,371.39,256.67,373.57,261Z"/><path class="cls-228" d="M212,168.39c1.49,0,2.81.08,2.76,1.91,0,1.52-1,1.78-2.32,1.75s-2.25,0-2.25-1.71C210.18,168.89,210.72,168.23,212,168.39Z"/></g></svg>